<svg width="26" height="27" viewBox="0 0 26 27" fill="none" xmlns="http://www.w3.org/2000/svg">
<path d="M12.8807 26.317C19.8966 26.317 25.5841 20.6295 25.5841 13.6136C25.5841 6.59768 19.8966 0.910156 12.8807 0.910156C5.86477 0.910156 0.177246 6.59768 0.177246 13.6136C0.177246 20.6295 5.86477 26.317 12.8807 26.317Z" fill="#627EEA"/>
<path d="M13.2756 4.08594V11.1284L19.228 13.7882L13.2756 4.08594Z" fill="white" fill-opacity="0.602"/>
<path d="M13.2761 4.08594L7.323 13.7882L13.2761 11.1284V4.08594Z" fill="white"/>
<path d="M13.2756 18.3521V23.1373L19.232 14.8967L13.2756 18.3521Z" fill="white" fill-opacity="0.602"/>
<path d="M13.2761 23.1373V18.3513L7.323 14.8967L13.2761 23.1373Z" fill="white"/>
<path d="M13.2756 17.2445L19.228 13.7883L13.2756 11.1301V17.2445Z" fill="white" fill-opacity="0.2"/>
<path d="M7.323 13.7883L13.2761 17.2445V11.1301L7.323 13.7883Z" fill="white" fill-opacity="0.602"/>
</svg>
