<svg width="12" height="13" viewBox="0 0 12 13" fill="none" xmlns="http://www.w3.org/2000/svg">
  <path d="M6.00879 0.6875C2.79785 0.6875 0.196289 3.28906 0.196289 6.5C0.196289 9.71094 2.79785 12.3125 6.00879 12.3125C9.21973 12.3125 11.8213 9.71094 11.8213 6.5C11.8213 3.28906 9.21973 0.6875 6.00879 0.6875ZM11.0713 6.5C11.0713 9.28906 8.79785 11.5625 6.00879 11.5625C3.21973 11.5625 0.946289 9.3125 0.946289 6.5C0.946289 3.73438 3.19629 1.4375 6.00879 1.4375C8.77441 1.4375 11.0713 3.71094 11.0713 6.5ZM7.5791 8.58594C7.69629 8.67969 7.88379 8.63281 7.9541 8.51562L8.16504 8.25781C8.25879 8.11719 8.21191 7.95312 8.09473 7.85938L6.4541 6.66406V3.21875C6.4541 3.07812 6.31348 2.9375 6.17285 2.9375H5.84473C5.68066 2.9375 5.56348 3.07812 5.56348 3.21875V6.96875C5.56348 7.0625 5.58691 7.13281 5.65723 7.20312L7.5791 8.58594Z" fill="currentColor"/>
</svg>
