<svg width="75" height="32" viewBox="0 0 75 32" fill="none" xmlns="http://www.w3.org/2000/svg">
<path fill-rule="evenodd" clip-rule="evenodd" d="M71.8326 15.0215H64.3761C63.0284 15.0215 61.9257 16.1213 61.9257 17.4718V23.894C61.9257 25.2417 63.0256 26.3444 64.3761 26.3444H71.8326C73.1803 26.3444 74.283 25.2446 74.283 23.894V17.4718C74.2801 16.1241 73.1803 15.0215 71.8326 15.0215ZM44.4342 6.57627H43.5167V6.41671C43.7674 6.42241 43.927 6.36827 43.8159 6.14603C43.6478 5.81267 44.38 5.82976 44.4883 5.90384C44.682 6.03206 44.5567 6.39961 44.4342 6.57627ZM43.1805 6.79851H44.2917C44.1692 6.98371 43.8216 7.61624 43.5993 7.61624C43.5082 7.49088 43.2147 7.08343 43.1805 6.79851ZM64.4131 17.4718H71.7899V23.894H64.4131V17.4718ZM49.2722 17.4718H59.5381C59.5381 16.1241 58.4383 15.0215 57.0877 15.0215H49.2067C47.859 15.0215 46.7563 16.1213 46.7563 17.4718V23.894C46.7563 25.2417 47.8561 26.3444 49.2067 26.3444H57.0877C58.4354 26.3444 59.5381 25.2446 59.5381 23.894V19.6572H51.204C51.204 20.7 52.0531 21.5491 53.0959 21.5491H57.1988V23.894H49.2693V17.4718H49.2722ZM17.2124 17.4718H27.0138C27.0138 16.1241 25.914 15.0215 24.5634 15.0215H16.9816C15.6339 15.0215 14.5312 16.1213 14.5312 17.4718V19.4578C14.5312 20.8055 15.631 21.9081 16.9816 21.9081H24.5862V23.894H14.5312C14.5312 25.2417 15.631 26.3444 16.9816 26.3444H24.8199C26.1676 26.3444 27.2702 25.2446 27.2702 23.894V21.9081C27.2702 20.5604 26.1704 19.4578 24.8199 19.4578H17.2124V17.4718ZM3.10284 17.4718H12.3544C12.3544 16.1241 11.2546 15.0215 9.90402 15.0215H2.45036C1.10266 15.0215 0 16.1213 0 17.4718V23.894C0 25.2417 1.09981 26.3444 2.45036 26.3444H9.90687C11.2546 26.3444 12.3572 25.2446 12.3572 23.894H3.10284V17.4718ZM46.7933 5.46221C46.7449 5.48785 46.6879 5.51064 46.611 5.52489C46.2605 6.02066 46.4714 5.96083 45.8559 6.37397C45.8559 7.2031 45.8816 7.29143 46.0753 8.02654C46.081 8.04363 46.0782 8.06073 46.0668 8.07782C46.0582 8.09207 46.044 8.10347 46.0269 8.10632C45.8787 8.13766 45.6622 8.19464 45.5397 8.21744C45.5425 8.24308 45.6024 8.71321 45.5368 9.06367C45.4314 9.61357 44.1264 10.8131 43.813 10.8758C43.3799 10.9613 42.8984 10.5795 42.1434 10.249C41.9354 10.1578 41.2373 9.69905 40.8726 9.57653C40.5706 9.47681 40.2657 10.2119 40.6418 10.4114C40.8185 10.5025 41.0977 10.6279 41.186 10.8558C41.4481 11.534 41.1461 14.1496 40.6048 14.6767C40.3483 14.6739 40.1346 14.4402 39.9437 14.5C39.6047 14.6852 39.8184 15.7224 39.9437 15.9047C42.0322 18.0531 41.7843 19.643 42.6705 20.8311C43.0751 20.8311 42.8101 21.2585 43.115 21.7628C43.1976 22.0221 43.0922 22.4609 43.0466 22.6261C43.0466 22.8427 43.0466 23.0592 43.0466 23.2729C43.0238 23.3413 43.001 23.4068 42.9782 23.4752C42.9782 23.6633 42.9782 23.8542 42.9782 24.0422C42.9155 24.3186 42.8471 24.689 42.7901 24.9454C42.6676 25.4896 43.1434 25.9113 42.8585 26.4299C42.8585 26.749 42.8585 26.6835 42.6705 26.9428C42.6705 27.4357 42.5536 28.4785 42.6705 28.8461C42.7502 29.1025 43.6791 30.1852 43.9127 30.2906C44.474 30.5414 45.3003 30.4872 45.0325 31.3705C43.3913 31.8748 42.3428 31.0856 41.4652 31.0742L41.4253 31.2252C40.864 31.2252 40.4167 31.0884 40.2942 31.0485C40.2942 30.8975 40.4765 29.735 40.5364 29.5498C40.5991 29.4501 40.6617 29.3504 40.7244 29.2535C40.7928 29.0569 40.656 27.6066 40.6446 27.2163C40.2942 26.9598 40.2258 26.1763 40.2258 25.7461C40.1261 25.4127 40.1261 25.0167 40.1033 24.5864C40.0947 24.3841 39.9722 24.0849 40.0492 23.8314C40.1004 23.6576 40.297 23.5806 40.3455 23.441C40.3455 23.2786 40.3455 23.1162 40.3455 22.9538C40.4367 22.4438 40.4082 22.2073 40.1033 21.9024C39.334 21.911 39.2286 21.948 38.8069 21.2955C38.6758 21.0932 37.6016 19.3979 37.4991 19.3523C36.6044 18.962 36.7839 19.113 36.3936 18.4206C36.3765 18.4206 36.14 18.5004 35.9291 18.8138C35.61 19.2925 35.043 20.8453 34.8806 21.3896C34.7894 21.6944 34.8806 22.0278 34.7467 22.2814C34.6498 22.4637 34.3307 22.5207 34.2595 22.6461C33.946 23.2102 34.1797 23.1675 33.5842 23.5635C33.4759 23.7031 33.4731 23.9083 33.3961 24.0764C33.3505 24.1391 33.305 24.2018 33.2622 24.2645C33.1625 24.481 33.3676 24.8713 33.3306 25.0081C33.228 25.3614 33.0913 25.7176 32.9517 26.0481C32.6781 26.6977 32.7152 27.5582 32.4388 27.9571C32.2992 28.1565 31.9658 27.9628 31.7094 28.128C31.6951 28.2677 31.2905 29.1937 31.2108 29.4501C31.2108 29.9402 31.2108 30.4302 31.2108 30.9203C31.2877 31.1682 31.4957 31.4047 31.433 31.7181C31.3675 32.0515 30.205 32.0458 29.5724 31.9574C29.1507 31.8976 29.0225 31.5842 29.0311 31.2252C29.0396 30.8006 29.8973 28.0397 29.846 27.8574C29.1935 27.1251 30.0198 26.3672 30.2648 25.6834C30.3845 25.35 30.3104 24.8856 30.4415 24.5779C30.6722 24.159 30.9002 23.7402 31.131 23.3213C31.5498 22.9253 31.3618 22.9054 31.5897 22.552C31.7863 22.2443 32.0256 22.0363 31.886 21.5662C31.6068 20.6203 32.2108 19.2783 32.2507 18.2867C32.1453 18.1756 31.7806 18.2098 31.735 17.9078C31.6438 17.2923 31.9687 16.2039 32.1681 16.1013C32.2564 16.0557 32.359 16.0956 32.4388 16.0472C32.4388 15.5856 31.9801 13.0184 32.3277 12.8902C32.5414 12.8104 33.0371 12.7677 33.1312 12.725C33.1255 12.6167 33.0514 12.383 32.9602 12.3688C32.8063 12.3489 32.4929 12.289 32.2422 12.232C31.4757 12.0554 32.1852 9.02948 32.1938 9.01808C32.4046 8.73885 33.3847 9.11495 33.5016 8.63913C33.8292 8.22029 33.248 6.61331 34.3677 4.63592C34.7438 3.96635 35.4675 3.29392 36.3109 3.57885C36.593 3.67572 36.4221 4.08032 36.9178 3.64723C36.9292 3.39365 36.8124 3.1828 36.7412 2.97196C35.9149 0.5102 38.7128 -0.823252 40.6674 0.58428C40.8868 0.672607 41.015 0.718195 41.1803 0.840713C41.2886 1.39917 41.8413 2.39071 41.2886 3.04034C41.0635 3.08878 40.7871 3.21414 40.6133 3.33666C40.6105 3.56175 40.6389 3.76975 40.6817 3.90366C40.7187 4.02333 40.79 4.07177 40.6076 4.14585C40.5848 4.1544 40.5934 4.23133 40.6076 4.25982C41.0635 4.351 41.5507 4.17434 41.8556 4.05183H42.2203V3.59309H42.3143H42.3941V3.23409H42.5679V3.85523H43.0238V4.05183H49.7708V4.40228H50.07V3.12012H50.3207V4.16295H50.8963V4.75844H52.6828V4.58179H52.9791V4.65872H53.8225V5.15449H52.9791V5.23142H52.6828V5.04337H50.8963V5.22002C50.6341 5.22002 50.372 5.22002 50.1099 5.22002V5.10035H49.7737V5.45936H46.7933V5.46221Z" fill="white"/>
</svg>
