<svg width="114" height="25" viewBox="0 0 114 25" fill="none" xmlns="http://www.w3.org/2000/svg">
<path d="M37.9583 19.8876V4.50621H32.4365V0.851562H47.4536V4.50621H41.9318V19.8876H37.9583Z" fill="white"/>
<path d="M46.8271 19.8874V6.07715H50.4818V8.26311C51.3471 6.40732 52.4628 6.07715 53.6583 6.07715H55.07V9.77734H53.8746C52.1554 9.77734 50.6184 10.7679 50.6184 13.7963V19.8988H46.8271V19.8874Z" fill="white"/>
<path d="M56.7891 14.8324V6.07715H60.569V13.9785C60.569 15.5952 61.3545 16.7906 62.9712 16.7906C64.531 16.7906 65.5215 15.5952 65.5215 14.0012V6.07715H69.3014V19.8988H65.7037V18.1568C64.7929 19.5345 63.438 20.2176 61.7189 20.2176C58.6904 20.2062 56.7891 18.1227 56.7891 14.8324Z" fill="white"/>
<path d="M70.9185 16.0052L74.2088 15.2538C74.3682 16.324 75.2221 17.1323 76.8729 17.1323C78.1481 17.1323 78.8539 16.6086 78.8539 15.9596C78.8539 15.4359 78.5693 15.0488 77.26 14.7642L75.0968 14.2974C72.3302 13.694 71.1575 12.4188 71.1575 10.0963C71.1575 7.72814 73.1158 5.81543 76.7932 5.81543C80.6983 5.81543 82.2695 8.16078 82.4289 9.69778L79.1158 10.4264C78.9564 9.61809 78.3644 8.73004 76.7135 8.73004C75.6661 8.73004 74.8919 9.19683 74.8919 9.87995C74.8919 10.4492 75.279 10.768 75.9621 10.9274L79.1158 11.656C81.5181 12.2025 82.6338 13.6371 82.6338 15.675C82.6338 17.861 80.8919 20.1608 76.8957 20.1608C72.501 20.1494 71.0665 17.5194 70.9185 16.0052Z" fill="white"/>
<path d="M89.8972 19.8871C87.4494 19.8871 85.8099 18.5322 85.8099 15.8453V9.37851H83.4873V6.06542H85.8099V2.99142L89.5898 1.89844V6.06542H92.3792V9.37851H89.5898V15.1622C89.5898 16.1755 90.1135 16.574 91.1268 16.574H92.5841V19.8871H89.8972Z" fill="white"/>
<path d="M94.6338 19.8879V0.863281H98.4137V19.8993H94.6338V19.8879Z" fill="white"/>
<path d="M109.81 6.07715H113.852L108.091 24.8513H104.049L105.643 19.8988H103.559L99.7568 6.07715H103.799L106.645 16.7679L109.81 6.07715Z" fill="white"/>
<path d="M0 9.19725H8.86907V2.11565L15.9507 9.19725L8.86907 16.2675V19.8879H17.4649V9.19725H25.3548V0.863281H0V9.19725Z" fill="white"/>
</svg>
