<svg width="105" height="19" viewBox="0 0 105 19" fill="none" xmlns="http://www.w3.org/2000/svg">
    <path d="M102.258 2.21948C100.922 1.31087 98.9173 0.851562 96.2867 0.851562H89.392L86.8282 14.7712H77.7923L78.3736 11.6128H83.8168L84.4632 8.06693H79.0233L79.6045 4.9219H85.2115L85.9564 0.851562H74.5721L72.137 14.0547H67.9614L70.4116 0.851562H64.4606L62.0288 14.0547H57.9568L60.4103 0.851562H54.4643L51.8955 14.7712H42.7945L43.3707 11.6128H48.834L49.4804 8.08697H44.0221L44.595 4.93025H50.2737L51.0086 0.851562H15.5331L13.5188 11.875L9.49689 0.851562H3.31706L0 18.8516H5.89589L7.90016 7.51909L11.8035 18.8516H32.9418L35.5106 4.93025H38.816L36.2439 18.8516H91.8456L93.4574 10.0628L96.0662 18.8516H101.965L99.2631 11.6696L99.8794 11.541C101.241 11.2504 102.303 10.6224 103.043 9.68371C103.783 8.74504 104.157 7.51241 104.157 6.05431C104.162 4.34734 103.541 3.09467 102.258 2.21948ZM27.8092 14.7712H18.79L19.3729 11.6128H25.035L25.678 8.05524H20.0627L20.6039 4.93025H29.6231L27.8092 14.7712ZM97.3941 8.70161C96.8011 9.11583 95.941 9.31793 94.7652 9.31793H93.596L94.4896 4.48764H95.3481C96.3251 4.48764 97.0367 4.64464 97.5277 4.96532C97.9118 5.21419 98.3628 5.71024 98.3628 6.64891C98.3762 7.78633 97.8417 8.39429 97.3941 8.70161Z" fill="white"/>
</svg>
