<svg width="27" height="28" viewBox="0 0 27 28" fill="none" xmlns="http://www.w3.org/2000/svg">
    <path fill-rule="evenodd" clip-rule="evenodd" d="M26.8023 13.9119C26.8023 21.1502 20.9344 27.0181 13.696 27.0181C6.45769 27.0181 0.589844 21.1502 0.589844 13.9119C0.589844 6.67351 6.45769 0.805664 13.696 0.805664C20.9344 0.805664 26.8023 6.67351 26.8023 13.9119ZM14.1038 4.08312L7.96207 14.0927L7.96186 14.0928L7.96197 14.0929L7.96191 14.093L7.96204 14.0929L14.1038 17.6585V11.3504L8.63371 13.7928L14.1038 11.3489V11.349L19.2368 13.6427L14.1038 11.3504V17.6585L20.2446 14.093L20.2449 14.0931L20.2447 14.0929L20.2449 14.0928L20.2446 14.0927L14.1038 4.08328V4.08312ZM14.1038 23.7391V18.8021L20.249 15.2373L14.1038 23.7391ZM14.1038 23.7391V18.8013L7.96186 15.2373L14.1038 23.7391Z" fill="white"/>
</svg>