<svg width="22" height="17" viewBox="0 0 22 17" fill="none" xmlns="http://www.w3.org/2000/svg">
<path d="M18.4219 1.71094C20.7422 5.15625 21.9023 9.02344 21.4805 13.4883C21.4805 13.4883 21.4805 13.5234 21.4453 13.5234C19.8984 14.6836 18.1406 15.5625 16.2773 16.125C16.2422 16.125 16.207 16.125 16.207 16.125C15.8203 15.5625 15.4688 15 15.1523 14.4023V14.3672C15.1523 14.332 15.1523 14.332 15.1875 14.2969C15.75 14.0859 16.2773 13.8398 16.8047 13.5234C16.8398 13.5234 16.8398 13.5234 16.8398 13.4883C16.8398 13.4531 16.8398 13.4531 16.8047 13.418C16.6992 13.3477 16.5938 13.2773 16.4883 13.1719H16.4531H16.418C13.0781 14.7188 9.42188 14.7188 6.04688 13.1719C6.01172 13.1719 6.01172 13.1719 6.01172 13.1719C5.97656 13.1719 5.97656 13.1719 5.97656 13.1719C5.87109 13.2773 5.76562 13.3477 5.66016 13.418C5.625 13.4531 5.625 13.4531 5.625 13.4883C5.625 13.5234 5.625 13.5234 5.66016 13.5234C6.15234 13.8398 6.71484 14.0859 7.27734 14.2969C7.27734 14.332 7.3125 14.332 7.3125 14.3672V14.4023C6.99609 15 6.64453 15.5625 6.25781 16.125C6.22266 16.125 6.22266 16.125 6.1875 16.125C4.28906 15.5625 2.53125 14.6836 1.01953 13.5234C0.984375 13.5234 0.984375 13.4883 0.984375 13.4883C0.632812 9.62109 1.37109 5.71875 4.04297 1.71094C4.04297 1.71094 4.04297 1.71094 4.07812 1.71094C5.37891 1.11328 6.82031 0.65625 8.26172 0.410156C8.26172 0.410156 8.26172 0.410156 8.29688 0.410156H8.33203C8.54297 0.761719 8.71875 1.14844 8.85938 1.5C9.63281 1.39453 10.4062 1.32422 11.2148 1.32422C12.0234 1.32422 12.832 1.39453 13.6055 1.5C13.7461 1.14844 13.9219 0.761719 14.1328 0.410156L14.168 0.375C14.168 0.375 14.168 0.410156 14.2031 0.410156C15.6445 0.65625 17.0859 1.11328 18.3867 1.71094C18.4219 1.71094 18.4219 1.71094 18.4219 1.71094ZM7.80469 11.1328C8.82422 11.1328 9.66797 10.1836 9.66797 9.05859C9.66797 7.89844 8.85938 6.98438 7.80469 6.98438C6.78516 6.98438 5.94141 7.89844 5.94141 9.05859C5.94141 10.1836 6.78516 11.1328 7.80469 11.1328ZM14.6602 11.1328C15.7148 11.1328 16.5234 10.1836 16.5234 9.05859C16.5586 7.89844 15.7148 6.98438 14.6602 6.98438C13.6406 6.98438 12.832 7.89844 12.832 9.05859C12.832 10.1836 13.6406 11.1328 14.6602 11.1328Z" fill="#A4A4A4"/>
</svg>
