<svg width="18" height="18" viewBox="0 0 18 18" fill="none" xmlns="http://www.w3.org/2000/svg">
<path d="M17.4375 9.25C17.4375 14.0664 13.5 17.9688 8.68359 17.9688C4.67578 17.9688 1.33594 15.2969 0.28125 11.6406L3.62109 13.0117C3.86719 14.1367 4.85156 15.0156 6.04688 15.0156C7.41797 15.0156 8.57812 13.8555 8.50781 12.4141L11.4961 10.3047C13.3242 10.3398 14.8711 8.86328 14.8711 7.03516C14.8711 5.20703 13.3945 3.73047 11.5664 3.73047C9.73828 3.73047 8.26172 5.20703 8.26172 7.03516V7.07031L6.1875 10.0586C5.66016 10.0586 5.09766 10.1992 4.67578 10.5156L0 8.58203C0.351562 4.08203 4.11328 0.53125 8.68359 0.53125C13.5 0.53125 17.4375 4.43359 17.4375 9.25ZM5.44922 13.7852C6.15234 14.0664 6.96094 13.75 7.24219 13.0469C7.52344 12.3438 7.20703 11.5352 6.50391 11.2539L5.41406 10.7969C5.83594 10.6211 6.32812 10.6211 6.78516 10.832C7.24219 11.0078 7.59375 11.3594 7.76953 11.8164C7.94531 12.2734 7.94531 12.8008 7.76953 13.2578C7.38281 14.1719 6.29297 14.6289 5.34375 14.2422C4.92188 14.0664 4.57031 13.75 4.39453 13.3281L5.44922 13.7852ZM11.5664 9.21484C10.3711 9.21484 9.38672 8.23047 9.38672 7.03516C9.38672 5.80469 10.3711 4.82031 11.5664 4.82031C12.7617 4.82031 13.7461 5.80469 13.7461 7.03516C13.7461 8.23047 12.7969 9.21484 11.5664 9.21484ZM11.5664 8.65234C12.4805 8.65234 13.2188 7.91406 13.2188 7C13.2188 6.12109 12.4805 5.38281 11.5664 5.38281C10.6523 5.38281 9.91406 6.12109 9.91406 7C9.91406 7.91406 10.6523 8.65234 11.5664 8.65234Z" fill="currentColor"/>
</svg>
