<svg width="20" height="12" viewBox="0 0 20 12" fill="none" xmlns="http://www.w3.org/2000/svg">
<path d="M19.1602 1.39844C18.8789 2.59375 16.3477 6.17969 16.3477 6.17969C16.1367 6.53125 16.0312 6.70703 16.3477 7.09375C16.4883 7.26953 19.125 9.80078 19.5117 10.9961C19.6875 11.5938 19.4062 11.875 18.8086 11.875H16.7344C15.9609 11.875 15.7148 11.2773 14.3086 9.87109C13.0781 8.67578 12.5508 8.5 12.2344 8.5C11.6016 8.5 11.707 8.74609 11.707 11.1016C11.707 11.5938 11.5312 11.875 10.2305 11.875C8.05078 11.875 5.625 10.5742 3.90234 8.11328C1.33594 4.49219 0.632812 1.78516 0.632812 1.22266C0.632812 0.90625 0.773438 0.625 1.33594 0.625H3.41016C3.9375 0.625 4.14844 0.871094 4.35938 1.43359C5.37891 4.38672 7.06641 6.98828 7.76953 6.98828C8.05078 6.98828 8.15625 6.84766 8.15625 6.17969V3.12109C8.08594 1.71484 7.34766 1.60938 7.34766 1.11719C7.34766 0.871094 7.52344 0.625 7.875 0.625H11.1094C11.5664 0.625 11.707 0.871094 11.707 1.39844V5.51172C11.707 5.93359 11.918 6.10938 12.0234 6.10938C12.3047 6.10938 12.5156 5.93359 13.0078 5.47656C14.4844 3.78906 15.5391 1.22266 15.5391 1.22266C15.6797 0.90625 15.9258 0.625 16.4531 0.625H18.5273C19.1602 0.625 19.2656 0.976562 19.1602 1.39844Z" fill="#A4A4A4"/>
</svg>
