<svg width="20" height="14" viewBox="0 0 20 14" fill="none" xmlns="http://www.w3.org/2000/svg">
<path d="M19.3008 2.64453C19.7227 4.12109 19.7227 7.28516 19.7227 7.28516C19.7227 7.28516 19.7227 10.4141 19.3008 11.9258C19.0898 12.7695 18.4219 13.4023 17.6133 13.6133C16.1016 14 10.125 14 10.125 14C10.125 14 4.11328 14 2.60156 13.6133C1.79297 13.4023 1.125 12.7695 0.914062 11.9258C0.492188 10.4141 0.492188 7.28516 0.492188 7.28516C0.492188 7.28516 0.492188 4.12109 0.914062 2.64453C1.125 1.80078 1.79297 1.13281 2.60156 0.921875C4.11328 0.5 10.125 0.5 10.125 0.5C10.125 0.5 16.1016 0.5 17.6133 0.921875C18.4219 1.13281 19.0898 1.80078 19.3008 2.64453ZM8.15625 10.1328L13.1484 7.28516L8.15625 4.4375V10.1328Z" fill="#A4A4A4"/>
</svg>
