<svg width="34" height="26" viewBox="0 0 34 26" fill="none" xmlns="http://www.w3.org/2000/svg">
<g clip-path="url(#clip0_573_121)">
<path d="M6.08027 25.8508V24.1293C6.08027 23.4809 5.66708 23.0448 5.00137 23.0391C4.65131 23.0333 4.28976 23.1424 4.03725 23.5268C3.84787 23.2227 3.54945 23.0391 3.13052 23.0391C2.83784 23.0391 2.5509 23.1251 2.32709 23.4465V23.1079H1.73312V25.8508H2.3357V24.3302C2.3357 23.8539 2.59968 23.6014 3.00714 23.6014C3.40311 23.6014 3.60397 23.8596 3.60397 24.3244V25.8508H4.20655V24.3302C4.20655 23.8539 4.48201 23.6014 4.87799 23.6014C5.28544 23.6014 5.48056 23.8596 5.48056 24.3244V25.8508H6.08027ZM14.9984 23.1079H14.0228V22.2759H13.4202V23.1079H12.8635V23.6531H13.4202V24.904C13.4202 25.5409 13.667 25.9197 14.3729 25.9197C14.6311 25.9197 14.9295 25.8393 15.1189 25.7073L14.9467 25.1966C14.7688 25.2999 14.5737 25.3516 14.4188 25.3516C14.1203 25.3516 14.0228 25.168 14.0228 24.8925V23.6531H14.9984V23.1079ZM20.0887 23.0391C19.7444 23.0391 19.5206 23.1997 19.3656 23.4407V23.1079H18.7745V25.8508H19.3714V24.313C19.3714 23.8596 19.5665 23.6072 19.9567 23.6072C20.0772 23.6072 20.2035 23.6244 20.3297 23.676L20.5134 23.1137C20.3814 23.062 20.2092 23.0391 20.0887 23.0391ZM12.393 23.326C12.106 23.1366 11.71 23.0391 11.2739 23.0391C10.5795 23.0391 10.1319 23.3719 10.1319 23.917C10.1319 24.3646 10.4647 24.64 11.0788 24.7261L11.36 24.7663C11.6871 24.8122 11.842 24.8983 11.842 25.0532C11.842 25.2655 11.624 25.386 11.2165 25.386C10.8033 25.386 10.5049 25.254 10.304 25.0991L10.0228 25.5639C10.3499 25.8049 10.7631 25.9197 11.2108 25.9197C12.0027 25.9197 12.4618 25.5467 12.4618 25.0245C12.4618 24.5425 12.1003 24.29 11.5034 24.2039L11.2222 24.1638C10.964 24.1293 10.7574 24.0777 10.7574 23.8941C10.7574 23.6932 10.9525 23.5727 11.2796 23.5727C11.6297 23.5727 11.9683 23.7047 12.1347 23.808L12.393 23.326ZM28.3784 23.0391C28.0341 23.0391 27.8103 23.1997 27.6553 23.4407V23.1079H27.0642V25.8508H27.6611V24.313C27.6611 23.8596 27.8562 23.6072 28.2464 23.6072C28.3669 23.6072 28.4932 23.6244 28.6194 23.676L28.8031 23.1137C28.6711 23.062 28.4989 23.0391 28.3784 23.0391ZM20.6913 24.4794C20.6913 25.3114 21.2709 25.9197 22.1547 25.9197C22.5679 25.9197 22.8433 25.8279 23.1418 25.5926L22.8548 25.1106C22.631 25.2712 22.3957 25.3573 22.1375 25.3573C21.6611 25.3516 21.3111 25.0073 21.3111 24.4794C21.3111 23.9514 21.6611 23.6072 22.1375 23.6014C22.3957 23.6014 22.631 23.6875 22.8548 23.8482L23.1418 23.3661C22.8433 23.1309 22.5679 23.0391 22.1547 23.0391C21.2709 23.0391 20.6913 23.6473 20.6913 24.4794ZM26.278 24.4794V23.1079H25.6812V23.4407C25.4918 23.194 25.2049 23.0391 24.8146 23.0391C24.0456 23.0391 23.443 23.6416 23.443 24.4794C23.443 25.3171 24.0456 25.9197 24.8146 25.9197C25.2049 25.9197 25.4918 25.7647 25.6812 25.518V25.8508H26.278V24.4794ZM24.0571 24.4794C24.0571 23.9974 24.3727 23.6014 24.8892 23.6014C25.3828 23.6014 25.7156 23.9801 25.7156 24.4794C25.7156 24.9786 25.3828 25.3573 24.8892 25.3573C24.3727 25.3573 24.0571 24.9614 24.0571 24.4794ZM16.8578 23.0391C16.0543 23.0391 15.4919 23.6244 15.4919 24.4794C15.4919 25.3516 16.0773 25.9197 16.8979 25.9197C17.3111 25.9197 17.6899 25.8164 18.0227 25.5352L17.7301 25.0934C17.5005 25.277 17.2078 25.3803 16.9324 25.3803C16.5479 25.3803 16.1978 25.2024 16.1117 24.7089H18.149C18.1547 24.6343 18.1605 24.5597 18.1605 24.4794C18.1547 23.6244 17.6268 23.0391 16.8578 23.0391ZM16.8463 23.5727C17.2308 23.5727 17.4775 23.8137 17.5407 24.2384H16.1175C16.1806 23.8424 16.4216 23.5727 16.8463 23.5727ZM31.816 24.4794V22.0062H31.2191V23.4407C31.0298 23.194 30.7428 23.0391 30.3526 23.0391C29.5836 23.0391 28.981 23.6416 28.981 24.4794C28.981 25.3171 29.5836 25.9197 30.3526 25.9197C30.7428 25.9197 31.0298 25.7647 31.2191 25.518V25.8508H31.816V24.4794ZM29.595 24.4794C29.595 23.9974 29.9107 23.6014 30.4272 23.6014C30.9207 23.6014 31.2536 23.9801 31.2536 24.4794C31.2536 24.9786 30.9207 25.3573 30.4272 25.3573C29.9107 25.3573 29.595 24.9614 29.595 24.4794ZM9.44321 24.4794V23.1079H8.84638V23.4407C8.657 23.194 8.37006 23.0391 7.97982 23.0391C7.21082 23.0391 6.60824 23.6416 6.60824 24.4794C6.60824 25.3171 7.21082 25.9197 7.97982 25.9197C8.37006 25.9197 8.657 25.7647 8.84638 25.518V25.8508H9.44321V24.4794ZM7.22229 24.4794C7.22229 23.9974 7.53793 23.6014 8.05442 23.6014C8.54796 23.6014 8.88081 23.9801 8.88081 24.4794C8.88081 24.9786 8.54796 25.3573 8.05442 25.3573C7.53793 25.3573 7.22229 24.9614 7.22229 24.4794ZM32.8116 25.4549C32.849 25.4549 32.8863 25.4606 32.9207 25.475C32.9551 25.4893 32.9838 25.5094 33.0096 25.5323C33.0355 25.5582 33.0555 25.5868 33.0699 25.6184C33.0842 25.65 33.0929 25.6873 33.0929 25.7246C33.0929 25.7619 33.0842 25.7963 33.0699 25.8307C33.0555 25.8623 33.0355 25.8938 33.0096 25.9168C32.9838 25.9426 32.9551 25.9598 32.9207 25.9742C32.8863 25.9885 32.8518 25.9971 32.8116 25.9971C32.7715 25.9971 32.737 25.9885 32.7026 25.9742C32.6682 25.9598 32.6395 25.9397 32.6137 25.9168C32.5878 25.891 32.5678 25.8623 32.5534 25.8307C32.5391 25.7992 32.5304 25.7619 32.5304 25.7246C32.5304 25.6873 32.5391 25.6528 32.5534 25.6184C32.5678 25.584 32.5878 25.5553 32.6137 25.5323C32.6395 25.5065 32.6682 25.4893 32.7026 25.475C32.7342 25.4606 32.7715 25.4549 32.8116 25.4549ZM32.8116 25.9397C32.8403 25.9397 32.869 25.934 32.8949 25.9225C32.9207 25.9111 32.9436 25.8967 32.9609 25.8766C32.9809 25.8565 32.9953 25.8336 33.0068 25.8078C33.0182 25.7819 33.024 25.7533 33.024 25.7246C33.024 25.6959 33.0182 25.6672 33.0068 25.6414C32.9953 25.6155 32.9809 25.5926 32.9609 25.5725C32.9408 25.5524 32.9207 25.5381 32.8949 25.5266C32.869 25.5151 32.8432 25.5094 32.8116 25.5094C32.783 25.5094 32.7543 25.5151 32.7284 25.5266C32.7026 25.5381 32.6797 25.5524 32.6596 25.5725C32.6395 25.5926 32.6251 25.6155 32.6137 25.6414C32.6022 25.6672 32.5964 25.6959 32.5964 25.7246C32.5964 25.7533 32.6022 25.7819 32.6137 25.8078C32.6251 25.8336 32.6395 25.8565 32.6596 25.8766C32.6797 25.8967 32.7026 25.9111 32.7284 25.9225C32.7543 25.934 32.7801 25.9397 32.8116 25.9397ZM32.826 25.5983C32.8576 25.5983 32.8834 25.6069 32.9006 25.6213C32.9178 25.6356 32.9264 25.6557 32.9264 25.6815C32.9264 25.7016 32.9207 25.7188 32.9063 25.7332C32.892 25.7475 32.8719 25.7561 32.8461 25.759L32.9293 25.8537H32.8633L32.7858 25.759H32.76V25.8537H32.7112V25.6012H32.826V25.5983ZM32.7629 25.6471V25.716H32.826C32.8403 25.716 32.8518 25.7131 32.8604 25.7073C32.869 25.7016 32.8719 25.693 32.8719 25.6815C32.8719 25.6701 32.869 25.6614 32.8604 25.6557C32.8518 25.65 32.8403 25.6471 32.826 25.6471H32.7629ZM32.4415 16.7299V16.397H32.5764V16.3282H32.2349V16.397H32.3698V16.7299H32.4415ZM33.1043 16.7299V16.3282H33.001L32.8805 16.6036L32.76 16.3282H32.6538V16.7299H32.7284V16.4286L32.8403 16.6897H32.9178L33.0297 16.4286V16.7327H33.1043V16.7299ZM15.7989 18.7239C15.8793 18.7928 15.9654 18.8616 16.0486 18.9305C14.4102 20.0207 12.4446 20.6577 10.3299 20.6577C4.62548 20.6577 0 16.0327 0 10.3288C0 4.62503 4.62548 0 10.3299 0C12.4446 0 14.4102 0.636945 16.0486 1.72721C15.9654 1.79607 15.8793 1.86206 15.7989 1.93379C13.3657 4.0512 11.9683 7.10969 11.9683 10.3288C11.9683 13.548 13.3657 16.6065 15.7989 18.7239ZM23.0987 0C20.984 0 19.0184 0.636945 17.38 1.72721C17.4632 1.79607 17.5493 1.86206 17.6296 1.93379C20.0629 4.0512 21.4574 7.10969 21.4574 10.3288C21.4574 13.548 20.0629 16.6065 17.6296 18.7239C17.5493 18.7928 17.4632 18.8616 17.38 18.9305C19.0184 20.0207 20.984 20.6577 23.0987 20.6577C28.8031 20.6577 33.4286 16.0327 33.4286 10.3288C33.4286 4.62503 28.8031 0 23.0987 0ZM16.7143 2.21209C16.5823 2.31825 16.4503 2.42441 16.324 2.53631C14.1462 4.42993 12.7689 7.21872 12.7689 10.3288C12.7689 13.439 14.1462 16.2278 16.324 18.1214C16.4503 18.2333 16.5823 18.3394 16.7143 18.4456C16.8463 18.3394 16.9783 18.2333 17.1045 18.1214C19.2824 16.2278 20.6597 13.439 20.6597 10.3288C20.6597 7.21872 19.2824 4.42993 17.1045 2.53631C16.9783 2.42441 16.8463 2.31825 16.7143 2.21209Z" fill="#A4A4A4"/>
</g>
<defs>
<clipPath id="clip0_573_121">
<rect width="33.4286" height="26" fill="white"/>
</clipPath>
</defs>
</svg>
