<svg width="142" height="30" viewBox="0 0 142 30" fill="none" xmlns="http://www.w3.org/2000/svg">
<g clipPath"url(#clip0)">
<path d="M0.021275 0.604642C0.021275 0.259604 0.18531 0.0135512 0.415807 0.0135512C0.541662 0.0135512 2.41534 0.0248639 4.12073 0.0333485C4.29467 0.0347626 4.47426 0.225665 4.64395 0.225665C4.73445 0.227079 4.78536 0.0701149 4.87445 0.0701149C4.93384 0.0701149 5.04697 0.299198 5.19403 0.217181C5.30009 0.157789 5.28312 0.0375908 5.49523 0.0390049C6.2942 0.0446612 6.8669 0.0460753 6.92912 0.0446612C7.16811 0.0404189 7.35759 0.0531458 7.55274 0.252533C7.74364 0.446264 8.76745 1.46724 8.87775 1.58744C8.98663 1.70764 9.12945 1.80662 9.12945 1.58744C9.12945 1.36825 9.13087 0.543836 9.13087 0.401013C9.13087 0.195969 9.21713 0.0319344 9.36985 0.0319344C9.52257 0.0319344 14.0434 0.0432471 14.2301 0.0432471C14.4578 0.0432471 14.6487 0.0983968 14.8565 0.273744C15.0644 0.449092 17.6055 2.83891 17.7257 2.97042C17.8459 3.10193 18.0835 3.2292 18.0835 3.00719C18.0835 2.788 18.0637 0.536766 18.0623 0.405255C18.0595 0.163445 18.2702 0.0333485 18.4568 0.0333485C18.6435 0.0333485 21.8874 0.0404189 22.1066 0.0404189C22.3767 0.0404189 22.4955 0.0446612 22.6708 0.197383C22.8462 0.350106 26.2174 3.77646 26.3588 3.92918C26.5016 4.0819 26.643 4.14836 26.6543 3.9716C26.6656 3.79625 26.6713 0.509898 26.6713 0.345863C26.6713 0.181828 26.6982 0.041833 26.841 0.041833C26.9838 0.041833 30.5996 0.0460753 30.7425 0.041833C30.9023 0.0375908 31.0705 0.0545599 31.1752 0.162031C31.3039 0.29637 32.3687 1.34421 32.5002 1.47572C32.6317 1.60724 32.8523 1.6737 32.8509 1.4432C32.8495 1.20422 32.8537 0.433537 32.8537 0.313339C32.8537 0.193141 32.8664 0.0220357 33.0545 0.026278C33.2072 0.0291062 36.7283 0.0432471 36.9249 0.0432471C37.1214 0.0432471 37.3039 0.0687008 37.4467 0.198797C37.5895 0.330308 44.5497 6.93554 44.7321 7.1024C44.8806 7.23816 45.0927 7.44744 45.0927 7.1222C45.0927 7.00625 45.0786 5.59781 45.0913 4.09745C45.0927 3.87544 45.8323 4.09745 45.8323 3.82595C45.8323 3.29142 45.7008 3.61242 45.7008 3.3494C45.7008 3.16981 45.7418 3.06234 45.5452 2.73427C45.4222 2.53064 45.0913 2.35529 45.0913 2.13469C45.0913 1.16604 45.0899 0.427881 45.0899 0.369903C45.0899 0.205868 45.1224 0.0305203 45.3288 0.0305203C45.4561 0.0305203 47.3284 0.0319344 48.7962 0.0319344C48.8712 0.0319344 48.9617 0.0913263 49.0338 0.0913263C49.1059 0.0913263 49.161 0.0319344 49.2303 0.0319344C49.9459 0.0319344 50.4889 0.0319344 50.5497 0.0305203C50.8184 0.0291062 50.9216 0.0743572 51.0531 0.217181C51.1846 0.360004 52.487 1.6836 52.586 1.7939C52.685 1.90278 52.9254 2.10641 52.9254 1.88157C52.9268 0.757365 54.0255 0.0149653 54.7863 0.0206216C55.1907 0.0248639 59.1643 0.0390049 59.3934 0.041833C59.6564 0.0460753 59.7441 0.0305203 59.9181 0.194555C60.0934 0.35859 63.0474 3.06234 63.2058 3.2094C63.3911 3.38192 63.5226 3.45121 63.5183 3.19668C63.5155 3.02133 63.5183 0.548079 63.507 0.372731C63.4957 0.197383 63.5296 0.0248639 63.6951 0.0361767C63.8054 0.0432471 66.2758 0.0375908 67.9558 0.0333485C68.0519 0.0333485 68.1863 0.0983968 68.2754 0.0983968C68.3687 0.0969827 68.4182 0.0319344 68.5044 0.0319344C69.046 0.0305203 69.4264 0.0291062 69.4844 0.0291062C70.7175 0.0319344 72.3578 1.79672 72.5813 2.43731C72.6378 2.5971 72.9659 2.70033 72.9645 2.41468C72.9645 2.26055 72.932 0.521211 72.932 0.324652C72.932 0.126679 72.9772 0.0319344 73.1752 0.0276921C73.2826 0.026278 74.8113 0.026278 76.3428 0.0276921C76.651 0.0276921 77.1148 0.220009 77.4104 0.220009C77.8926 0.221423 78.1853 0.268088 78.5516 0.204454C78.7411 0.17193 78.8938 0.0291062 79.0281 0.0291062C79.3053 0.0291062 79.4849 0.0291062 79.5202 0.0291062C79.7535 0.0276921 79.8115 0.0305203 79.9756 0.184657C80.1396 0.337379 81.4123 1.56764 81.5438 1.69915C81.6753 1.83066 81.8478 1.9749 81.8408 1.76986C81.8351 1.55067 81.8436 0.499999 81.8436 0.316167C81.8436 0.139406 81.8959 -0.00341797 82.1137 -0.00341797C82.2183 -0.00341797 83.4924 0.0050666 84.8146 0.0135512C84.9645 0.0149653 85.1328 0.0884981 85.2827 0.0899122C85.4099 0.0913263 85.5188 0.0177934 85.6447 0.0192075C85.7224 0.0206216 85.7988 0.0206216 85.8737 0.0206216C85.9911 0.0220357 86.1141 0.35859 86.2259 0.368489C86.5879 0.401013 86.3559 0.222837 86.5299 0.228493C86.7434 0.236978 86.4733 0.362832 86.8339 0.375559C87.0644 0.384044 86.7349 0.0291062 86.9824 0.026278C87.4745 0.0220357 87.804 0.0305203 87.8648 0.0305203C88.9763 0.0220357 91.301 2.54195 91.7352 3.17971C91.9812 3.5403 92.0745 3.46394 92.0745 3.29991C92.0745 3.13587 92.0859 0.454748 92.0859 0.300612C92.0859 0.146476 92.1735 0.0489035 92.3263 0.0489035C92.4054 0.0489035 93.5989 0.0460753 94.7726 0.0432471C94.9862 0.041833 95.2167 0.365661 95.4203 0.365661C95.7314 0.365661 95.5023 0.207282 95.7413 0.21011C96.0128 0.214353 96.3126 0.21011 96.5205 0.21011C96.792 0.21011 96.5049 0.0375908 96.775 0.0390049C96.9419 0.0390049 97.0536 0.0375908 97.0875 0.0375908C97.3392 0.0375908 97.5895 0.0672867 97.8426 0.306269C98.1113 0.557977 99.1351 1.62279 99.2765 1.81652C99.4844 2.10075 99.6781 2.22095 99.6711 1.95934C99.6442 0.919985 100.453 0.0220357 101.088 0.0220357C101.723 0.0220357 105.443 0.0121371 105.805 0.0163793C106.189 0.0220357 106.633 0.191727 106.884 0.388286C107.105 0.560805 109.263 2.72437 109.522 3.00436C109.73 3.2292 109.785 3.16839 109.795 3.00436C109.806 2.84033 109.82 1.93248 109.817 1.77834C109.802 1.07836 110.49 0.0375908 111.272 0.0375908C111.5 0.0375908 111.996 0.0375908 112.594 0.0375908C112.965 0.0375908 113.145 0.227079 114.014 0.235564C114.146 0.236978 114.048 0.0375908 114.178 0.0375908C115.237 0.0375908 116.193 0.0375908 116.308 0.0375908C116.554 0.0375908 116.712 0.0588022 116.964 0.268088C117.026 0.318995 117.384 0.664034 117.892 1.15897C118.013 1.27775 117.91 1.65249 118.046 1.78541C118.155 1.89288 118.501 1.75571 118.619 1.87026C118.824 2.07106 119.037 2.28176 119.256 2.4967C119.34 2.57872 119.146 2.87002 119.154 3.0581C119.162 3.22213 119.139 3.42717 119.647 3.38617C119.941 3.36213 120.117 3.34516 120.243 3.4696C121.389 4.59946 122.422 5.6275 122.547 5.76043C122.755 5.98527 122.896 6.01214 122.898 5.79295C122.898 5.58367 122.903 2.01732 122.903 1.7543C122.898 0.659792 123.969 0.00930888 124.671 0.0192075C124.956 0.0234498 125.952 0.026278 127.051 0.0276921C127.23 0.0276921 127.55 0.0432471 127.691 0.150718C127.864 0.282229 128.215 0.215767 128.595 0.215767C128.75 0.215767 128.557 0.425052 128.988 0.364246C129.103 0.347277 128.791 0.0347626 129.07 0.0305203C129.9 0.0135512 130.539 0.0305203 130.635 0.0305203C130.92 0.0305203 131.051 -0.00200388 131.227 0.217181C131.3 0.310511 133.051 2.29024 135.056 4.55703C135.178 4.6942 134.964 5.15944 135.087 5.29802C135.17 5.39135 135.383 5.38569 135.432 5.50306C135.473 5.60205 135.383 5.88628 135.456 5.97113C135.558 6.08567 135.895 6.11961 136.047 6.11961C136.244 6.11961 136.439 6.12102 136.558 6.25536C138.444 8.38499 140.253 10.4255 140.872 11.1213C140.998 11.2641 140.848 11.7802 140.866 11.8C141.086 12.0404 141.417 11.7406 141.417 12.0051C141.417 12.1281 141.414 13.2806 141.411 14.59C141.411 14.7795 140.974 14.9803 140.973 15.1726C140.973 15.2801 141.026 15.2462 141.03 15.3536C141.047 15.7807 140.883 15.3126 140.907 16.0183C140.92 16.4043 141.4 16.1908 141.407 16.5104C141.431 17.5992 141.402 18.4887 141.404 18.6145C141.405 18.7065 141.339 19.0656 141.193 19.3414C141.038 19.6369 139.237 23.0138 139.117 23.2499C138.964 23.5483 138.82 23.8113 139.051 24.0461C139.281 24.2808 140.994 25.9311 141.172 26.1149C141.346 26.2945 141.366 26.3793 141.371 26.6424C141.377 26.9181 141.38 29.2231 141.38 29.4847C141.38 29.7477 141.327 29.9909 141.064 29.9909C140.95 29.9909 139.382 29.9867 137.631 29.9824C137.393 29.9824 137.167 29.6445 136.925 29.6445C136.785 29.6445 136.645 29.9075 136.505 29.9075C136.387 29.9061 136.368 29.653 136.251 29.653C136.068 29.6515 135.771 29.9782 135.595 29.9782C134.063 29.974 132.783 29.9711 132.68 29.9711C132.417 29.9711 132.198 29.875 132.023 29.6643C131.852 29.4592 128.886 25.9622 128.734 25.7868C128.581 25.6115 128.497 25.6695 128.444 25.907C128.367 26.2464 127.902 27.7128 127.01 27.7157C126.867 27.7171 126.281 27.7199 125.57 27.7227C125.419 27.7241 125.302 27.4484 125.193 27.2801C125.053 27.0666 124.701 27.1486 124.471 27.4031C124.346 27.5417 124.141 27.7298 123.962 27.7298C123.204 27.734 122.562 27.7369 122.401 27.7369C121.984 27.7369 121.922 27.7128 121.693 27.5177C121.372 27.2462 118.997 25.3414 118.669 25.0458C118.563 24.9497 118.511 24.8238 118.44 24.7673C118.292 24.6471 118.128 24.756 118.121 24.9398C118.112 25.1378 118.269 25.1491 118.269 25.2438C118.261 26.1729 118.143 27.7821 116.649 27.8019C116.575 27.8033 116.479 27.8047 116.363 27.8047C116.268 27.8062 116.161 27.8062 116.043 27.8076C115.857 27.809 115.714 27.4767 115.493 27.4767C115.339 27.4767 115.13 27.5672 114.967 27.5672C114.793 27.5672 114.617 27.4936 114.441 27.4936C114.065 27.4951 113.685 27.8161 113.384 27.8161C113.078 27.8161 112.835 27.8161 112.708 27.8146C112.66 27.8146 112.611 27.8146 112.562 27.8146C112.272 27.8146 112.006 27.5601 111.742 27.4951C111.561 27.4498 111.277 27.5304 111.142 27.3961C110.782 27.0355 107.256 23.4649 106.907 23.1198C106.436 22.6546 105.757 23.0746 106.228 23.5356C106.853 24.1479 107.405 24.5877 107.662 24.8592C107.935 25.1491 108.11 25.3626 108.117 25.7953C108.123 26.2238 108.112 27.0256 108.117 27.3551C108.123 27.6944 108.117 27.809 107.723 27.809C107.33 27.809 103.821 27.8146 103.394 27.8146C102.967 27.8146 103.034 27.7821 102.803 27.6167C102.573 27.4526 101.408 26.4288 101.156 26.2096C100.923 26.0074 100.652 26.0018 100.652 26.2422C100.652 26.4741 100.648 27.2433 100.641 27.5502C100.635 27.7849 100.664 27.8401 100.329 27.8401C99.9991 27.8401 97.4608 27.8245 97.2968 27.8245C97.1328 27.8245 97.0394 27.809 96.8754 27.6548C96.7142 27.505 96.2617 26.9322 96.1316 26.8007C96.0001 26.6692 95.8247 26.631 95.8247 26.8502C95.8247 27.0468 95.8247 27.2886 95.8247 27.4852C95.8247 27.6817 95.7809 27.8797 95.5518 27.8797C95.3213 27.8797 93.2086 27.874 92.8806 27.874C92.5525 27.874 92.3715 27.7213 92.1636 27.5233C91.9713 27.3423 89.4387 24.7927 89.3397 24.6951C89.2407 24.5962 88.9183 24.4208 88.9126 24.7065C88.9084 24.903 88.9183 27.1585 88.9126 27.4201C88.907 27.6591 88.9282 27.809 88.651 27.8132C88.3866 27.8189 86.0123 27.8189 85.7832 27.8189C85.5527 27.8189 85.4764 27.8429 85.1709 27.5841C84.8542 27.3169 83.0201 25.5436 82.8405 25.3513C82.6652 25.1646 82.4135 24.9186 82.4135 25.2198C82.4135 25.5167 82.4135 26.9761 82.4135 27.2391C82.4135 27.5021 82.4191 27.7595 82.0472 27.7637C82.002 27.7637 81.927 27.7651 81.8308 27.7651C81.6696 27.7651 81.4957 27.3211 81.2482 27.3211C81.1097 27.3197 80.8721 27.4286 80.7222 27.4272C80.5992 27.4272 80.3857 27.4427 80.2626 27.5007C80.0844 27.5841 80.0081 27.7567 79.8356 27.7552C79.499 27.7538 79.236 27.7524 79.1568 27.7524C78.8938 27.7524 78.8089 27.751 78.6265 27.5714C78.43 27.3791 78.0524 27.0128 77.877 26.8488C77.7158 26.6989 77.5433 26.5971 77.5433 26.8276C77.5433 27.0581 77.549 27.3961 77.549 27.5714C77.549 27.7383 77.5164 27.8118 77.2859 27.8118C77.0555 27.8118 74.9329 27.8175 74.6374 27.8175C74.3404 27.8175 74.2711 27.8118 73.943 27.5502C73.615 27.2872 72.1613 25.8208 72.0383 25.7105C71.8799 25.5676 71.6593 25.5196 71.6607 25.7699C71.6664 26.624 70.9282 27.7892 70.2933 27.7948C70.1024 27.7963 69.3684 27.7977 68.5172 27.8005C68.2485 27.8005 68.0816 27.3918 67.6546 27.4003C67.2685 27.4088 67.2671 27.8019 67.0635 27.8019C66.9829 27.8019 66.9037 27.8019 66.8259 27.8033C66.6986 27.8033 66.7227 27.505 66.6039 27.4993C66.2589 27.4837 66.0694 27.8047 65.9067 27.8047C65.5334 27.8047 65.2803 27.8062 65.2365 27.8062C65.0399 27.8062 65.0456 27.8443 64.75 27.5813C64.4545 27.3183 60.1641 23.3221 59.9506 23.1382C59.7865 22.9954 59.5617 22.6999 59.556 23.0336C59.5532 23.1863 59.5546 24.2808 59.556 25.5125C59.556 25.6638 59.2987 25.7105 59.1177 25.849C59.0031 25.9367 58.8532 26.0739 58.8462 26.2181C58.8306 26.5632 59.0102 26.3327 59.0102 26.5462C59.0102 26.7442 58.8306 26.6197 58.8377 27.0553C58.8391 27.1585 59.1163 27.0793 59.1163 27.4654C59.1163 27.6789 59.5575 27.6676 59.5575 27.7934C59.5589 28.5995 59.5603 29.2061 59.5603 29.2881C59.5603 29.5497 59.5716 29.9782 59.2096 29.9782C58.7811 29.9782 56.8184 29.9626 56.5553 29.9626C56.2923 29.9626 56.0788 29.9132 55.6857 29.6176C55.5372 29.5073 54.5586 28.557 53.3807 27.4003C53.1431 27.167 53.4288 26.9987 52.8702 26.4811C52.4347 26.0795 52.3526 26.2832 52.1971 26.1276C52.0981 26.0301 52.0416 25.8151 51.9426 25.7175C51.8195 25.5959 51.6357 25.6836 51.5155 25.5634C50.1071 24.1719 48.8641 22.9374 48.7693 22.8427C48.57 22.6433 48.3211 22.4708 48.3211 22.7663C48.3211 23.0619 48.2999 26.9252 48.2999 27.2532C48.2999 27.5827 48.2942 27.8175 48.0199 27.8175C47.7554 27.8175 46.0119 27.8231 45.7715 27.8175C45.5395 27.8132 45.4434 27.8118 45.2129 27.6478C44.9824 27.4837 44.6161 27.051 44.4578 26.8926C44.3093 26.7442 43.9982 26.6028 43.9982 26.952C43.9982 27.15 43.9982 27.3141 43.9982 27.5431C43.9982 27.7736 43.977 27.8161 43.7465 27.8161C43.5174 27.8161 42.5869 27.8104 42.3239 27.8104C42.0609 27.8104 41.9039 27.751 41.689 27.5375C41.4698 27.3183 40.7854 26.6947 40.627 26.5405C40.4757 26.3949 40.2551 26.1969 40.2551 26.426C40.2551 26.6579 40.2551 27.0227 40.2551 27.3183C40.2551 27.6124 40.3102 27.8217 39.9921 27.8274C39.6951 27.833 38.0929 27.8274 37.8582 27.8274C37.6192 27.8274 37.5457 27.8443 37.2841 27.6464C37.021 27.4484 36.0043 26.4104 35.812 26.2294C35.6395 26.0668 35.3312 25.907 35.3312 26.2026C35.3312 26.4981 35.3312 27.1161 35.3312 27.3466C35.3312 27.5771 35.3199 27.8062 35.0583 27.8062C34.9579 27.8062 34.61 27.8062 34.207 27.8076C33.9906 27.809 33.7757 27.3508 33.5579 27.3522C33.3755 27.3536 33.0404 27.4187 32.8763 27.4597C32.7943 27.4809 32.8184 27.6647 32.8678 27.7397C32.9131 27.8076 32.667 27.8132 32.6374 27.8132C32.3687 27.8132 32.3036 27.8726 32.0406 27.6435C31.7776 27.413 30.7213 26.385 30.536 26.204C30.3663 26.0385 30.1415 25.9084 30.1415 26.204C30.1415 26.4995 30.1415 27.0029 30.1415 27.365C30.1415 27.7255 30.2023 27.8358 29.8785 27.8302C29.5815 27.8245 27.5141 27.8358 27.2086 27.8302C26.9117 27.8245 26.8636 27.891 26.6402 27.6775C26.4351 27.4823 25.9996 26.9931 25.8087 26.7965C25.6432 26.6268 25.4085 26.5222 25.4085 26.8177C25.4085 27.1132 25.4142 27.3183 25.4198 27.5516C25.4255 27.7864 25.3717 27.8217 25.0606 27.7892C24.9051 27.7736 24.9376 27.5106 24.659 27.4936C24.5261 27.4866 24.3493 27.6421 24.1584 27.6421C24.017 27.6421 23.9435 27.8217 23.7795 27.8217C23.6833 27.8217 23.5843 27.8217 23.4839 27.8217C23.3821 27.8217 23.31 27.6138 23.2053 27.6181C22.9918 27.6266 22.8829 27.8231 22.7373 27.8231C21.7403 27.8245 20.7462 27.8231 20.4931 27.8203C19.9671 27.8146 19.9345 27.8316 19.6178 27.4922C19.2996 27.1514 16.8377 24.6244 16.6411 24.4279C16.4446 24.2299 16.1702 24.0065 16.1702 24.3346C16.1702 24.5976 16.166 27.4272 16.1617 28.7508C16.1603 29.076 15.746 29.1255 15.6937 29.1283C15.5212 29.1368 15.4646 29.2429 15.4391 29.6049C15.4335 29.6855 15.4646 29.9909 15.1676 29.9909C14.3828 29.9909 13.2275 29.9867 13.0012 29.9824C12.9503 29.981 12.8895 29.9824 12.8202 29.9782C12.6322 29.9655 12.5784 29.6784 12.3112 29.3744C12.2885 29.3489 11.8063 29.1467 11.6635 28.9968C11.467 28.7918 11.4995 29.3574 11.054 28.8922C8.87775 26.6127 2.28665 19.7967 2.10989 19.6115C1.92747 19.4192 1.74364 19.3004 1.73799 18.9497C1.73657 18.8238 1.73657 16.8908 1.73799 14.525C1.73799 14.3977 2.05474 14.4981 2.05898 14.3694C2.06747 14.0909 1.7394 13.8406 1.7394 13.6878C1.7394 13.6143 1.7394 13.5408 1.7394 13.4658C1.7394 13.3272 2.19898 13.4984 2.1905 13.3513C2.16787 12.9582 1.7394 12.7998 1.7394 12.5467C1.74081 9.14294 1.74364 5.62892 1.74364 5.49317C1.74364 5.23014 1.7493 4.95722 1.54708 4.75501C1.36608 4.574 0.51338 3.74252 0.294195 3.51768C0.0877374 3.32253 6.36277e-05 3.25183 6.36277e-05 2.88416C-0.00135047 2.55609 0.021275 0.604642 0.021275 0.604642Z" fill="url(#paint0_linear)"/>
<g opacity="0.3">
<path opacity="0.3" d="M5.11492 22.101C4.75574 22.101 4.3909 21.879 4.38525 21.3855C4.38383 21.2257 4.38525 19.0084 4.38807 15.7305C4.38949 15.3954 4.70766 15.3798 4.91836 15.3699C4.93391 15.3685 4.94381 15.3671 4.94947 15.3671C4.9523 15.3501 4.9523 15.3204 4.9523 15.2992C4.9523 15.2228 4.95371 15.1196 5.02725 15.0362C5.10219 14.9527 5.19976 14.9485 5.25774 14.9457C5.2634 14.9457 5.27047 14.9457 5.27613 14.9443C5.28602 14.8538 5.25916 14.619 5.12199 14.5356C5.07108 14.5045 4.98058 14.472 4.89291 14.4408C4.66382 14.3602 4.40504 14.2683 4.39797 14.0435C4.38949 13.7805 4.38949 13.492 4.3909 13.212C4.3909 13.089 4.3909 12.9674 4.3909 12.8528C4.38949 12.6902 4.47009 12.5629 4.53373 12.4611C4.55777 12.4229 4.59312 12.3664 4.59453 12.3466C4.59453 12.3324 4.59312 12.3282 4.57615 12.3013C4.55211 12.2631 4.51676 12.2066 4.51676 12.1132C4.51676 11.9619 4.67372 11.9308 4.79109 11.9139C4.77271 11.8983 4.75291 11.8842 4.73736 11.8714C4.69635 11.8389 4.65392 11.8064 4.61857 11.7739L4.60867 11.7654C4.53373 11.6989 4.39373 11.5745 4.3909 11.3539C4.36686 9.16062 4.38525 7.32937 4.3909 6.63929C4.39232 6.49647 4.39373 6.41162 4.39232 6.39324C4.38807 6.11042 4.35555 6.08921 4.15051 6.08638C3.85496 6.08072 3.06024 6.08072 2.97115 6.08072C2.64874 6.08072 2.43945 5.84457 2.43945 5.47832C2.43945 5.45852 2.43945 3.49434 2.44794 3.30344C2.46632 2.87214 2.70954 2.62609 3.12953 2.60912C3.24266 2.60488 4.10808 2.60205 5.70177 2.60205C7.03667 2.60205 8.52854 2.60346 9.21296 2.60488H9.58629C9.91153 2.60488 10.2848 2.67841 10.2905 3.24405C10.2947 3.61454 10.299 5.24782 10.299 5.4769C10.299 5.81063 10.0784 6.06234 9.78426 6.06234C9.66123 6.06234 9.3671 6.05951 9.08287 6.0581C8.82126 6.05668 8.56955 6.05385 8.47198 6.05385C8.28249 6.05385 8.23583 6.07789 8.23583 6.25607C8.23583 6.40031 8.23724 9.71494 8.23724 13.195C8.23865 17.0414 8.24007 21.0885 8.24007 21.2836C8.24007 21.5226 8.24007 22.0812 7.59383 22.0812H7.5811C7.52595 22.0812 7.44393 22.0798 7.34495 22.0798C6.6987 22.0798 5.35814 22.0911 5.13896 22.0982L5.11492 22.101Z" fill="black"/>
<path opacity="0.3" d="M12.4909 20.0405C12.1133 20.0405 11.921 19.8397 11.8843 19.407C11.8758 19.2981 11.8715 18.2375 11.8715 16.2535C11.8715 16.1715 11.9281 15.9325 12.1034 15.9283C12.1232 15.9283 12.1416 15.9311 12.1586 15.9354C12.1572 15.8859 12.1529 15.8434 12.1487 15.8251C12.1388 15.8039 12.0766 15.7247 12.0539 15.7077C12.0441 15.7006 12.0342 15.6936 12.0243 15.6865C11.9663 15.6455 11.8701 15.5776 11.8701 15.4418C11.8729 10.8121 11.8927 3.58891 11.8956 3.36407C11.9012 2.9455 12.2208 2.63722 12.6564 2.63157C12.8798 2.62874 14.8793 2.63298 16.0799 2.63439C16.5267 2.63581 16.8619 2.63581 16.9538 2.63581C17.4006 2.63581 17.5647 2.93277 17.5689 3.21134C17.5732 3.44608 17.5802 4.60847 17.5774 4.81493C17.5717 5.16138 17.2946 5.45127 16.958 5.46258L16.9128 5.464C16.8746 5.46541 16.8279 5.46824 16.7756 5.46824H16.7558C16.6285 5.46682 16.5621 5.34945 16.514 5.2632C16.5013 5.23916 16.4801 5.20239 16.4659 5.18542C16.4574 5.18542 16.4504 5.18401 16.4419 5.18401C16.4065 5.18401 16.3853 5.18966 16.3754 5.1939C16.3712 5.20522 16.3669 5.21794 16.3627 5.22926C16.333 5.31552 16.2778 5.47672 16.1025 5.47955C15.9116 5.48238 15.7419 5.48379 15.6528 5.48379C15.5058 5.48379 15.4251 5.68035 15.4251 5.81469C15.4251 5.98014 15.4266 8.41804 15.4308 8.62167C15.4365 8.85782 15.7023 8.86348 15.7334 8.86348C15.8352 8.86348 16.053 8.86772 16.2877 8.87196C16.5536 8.87762 16.8562 8.88328 17.0188 8.88328C17.3582 8.88328 17.5717 9.08973 17.5901 9.43477C17.6043 9.68365 17.5887 11.0058 17.5774 11.2759C17.5618 11.6535 17.2154 11.9462 16.9156 11.9561C16.7219 11.9618 16.1237 11.9632 15.6896 11.9632C15.5906 11.9632 15.5567 11.9971 15.5453 12.0098C15.4704 12.0848 15.4619 12.2672 15.4633 12.4553L15.4647 12.5528C15.4761 13.7039 15.4704 14.657 15.4478 15.3853C15.4421 15.5564 15.2993 15.6257 15.2229 15.6639C15.2159 15.6667 15.2074 15.6709 15.2003 15.6752C15.1975 15.7232 15.2031 15.8279 15.2116 15.8731C15.213 15.8802 15.2144 15.883 15.2144 15.883C15.2159 15.883 15.2342 15.8873 15.247 15.8901C15.2951 15.9028 15.4393 15.941 15.4393 16.1107C15.4379 16.4982 15.4435 16.8715 15.4449 16.938C15.4506 17.1119 15.493 17.1529 15.6712 17.1529C15.8833 17.1529 16.6936 17.1543 16.934 17.1571C17.3031 17.1628 17.5604 17.4654 17.5604 17.8953C17.5604 18.1314 17.5562 19.1595 17.5519 19.4296C17.5463 19.8029 17.3398 20.0348 17.0118 20.0348C16.8972 20.0348 15.9003 20.0362 14.8694 20.0391C13.7692 20.0376 12.6295 20.0405 12.4909 20.0405Z" fill="black"/>
<path opacity="0.3" d="M19.5795 20.1679C19.3971 20.1679 19.1935 20.1495 19.0704 20.0109C18.9856 19.9162 18.9545 19.7861 18.9729 19.6122C18.9884 19.4792 20.9116 3.72057 20.9441 3.50704C20.9936 3.20018 21.2213 2.7406 21.6469 2.72646C21.6978 2.72505 21.8081 2.72363 21.9566 2.72363C22.6113 2.72363 24.0481 2.73636 24.2729 2.73919C24.7608 2.74484 25.0209 2.98524 25.1171 3.52118C25.1553 3.72905 25.9359 9.28362 26.5637 13.7465C26.9667 16.6171 27.316 19.096 27.3429 19.2685C27.3952 19.6065 27.4009 19.8653 27.2637 20.0265C27.1859 20.117 27.0728 20.1622 26.9271 20.1622C26.6033 20.1622 24.9743 20.141 24.6731 20.1325C24.1796 20.1184 23.9236 19.8964 23.9123 19.4764C23.9095 19.3817 23.9109 19.1328 23.9137 18.8189C23.918 18.2405 23.9236 17.4486 23.9024 17.245C23.867 16.9112 23.8176 16.7529 23.5178 16.7529C23.3735 16.7529 23.2137 16.7543 23.0638 16.7557C22.9352 16.7571 22.8135 16.7571 22.7202 16.7571C22.453 16.7571 22.4162 16.8872 22.4162 17.0272C22.4162 17.2124 22.4049 17.8092 22.395 18.3366C22.3865 18.7778 22.378 19.195 22.378 19.3011C22.378 19.9713 22.0089 20.1085 21.7883 20.1311C21.4871 20.1637 20.2752 20.1679 19.5795 20.1679ZM23.1119 9.58482C23.0455 10.0472 22.7202 12.9843 22.7061 13.1766C22.6934 13.352 22.7527 13.4439 22.8942 13.4679C23.0568 13.4948 23.2038 13.4863 23.382 13.4396C23.4499 13.4227 23.4867 13.4128 23.4654 13.1469C23.4584 13.0493 23.4103 12.4682 23.3523 11.7922C23.3339 11.573 23.5687 11.5207 23.7101 11.4882C23.7172 11.4868 23.7242 11.4854 23.7313 11.4825C23.6988 11.4599 23.6648 11.4373 23.638 11.4189C23.4994 11.327 23.4131 11.2662 23.3707 11.2025C23.283 11.0696 23.276 10.9848 23.2675 10.8773L23.2632 10.8363C23.177 9.93834 23.1317 9.66683 23.1119 9.58482Z" fill="black"/>
<path opacity="0.3" d="M77.3216 20.1564C76.9624 20.1564 76.5976 19.9344 76.592 19.4409C76.5905 19.2288 76.5934 15.8618 76.5962 12.6066C76.599 9.62286 76.6019 6.80598 76.6004 6.6773C76.5962 6.3959 76.5637 6.37468 76.3572 6.37186C76.0532 6.36761 75.6106 6.36761 75.4819 6.36761C75.1369 6.36761 74.9502 6.00419 74.9502 5.66339C74.9502 5.40462 74.97 3.57054 74.9771 3.39519C74.994 2.96389 75.2358 2.71784 75.6587 2.70087C75.7421 2.69804 76.1889 2.69662 76.8069 2.69521L77.0614 2.6938C77.2325 2.6938 77.2792 2.84793 77.2976 2.9045C77.299 2.90874 77.3004 2.91298 77.3018 2.91722C77.3853 2.92712 77.4744 2.94268 77.5663 2.95823C77.7303 2.98651 77.8986 3.01621 78.0584 3.01621C78.1418 3.01621 78.2125 3.00773 78.2776 2.99217C78.2875 2.98369 78.3157 2.93278 78.3327 2.90167C78.378 2.81824 78.4458 2.69238 78.5844 2.69238C79.6817 2.69238 80.789 2.6938 81.3122 2.6938H81.6106C81.9358 2.6938 82.3091 2.76733 82.3148 3.33438C82.3176 3.5875 82.312 4.43737 82.3077 5.05816C82.3063 5.35088 82.3049 5.58421 82.3049 5.66198C82.3049 5.95046 82.1253 6.34923 81.7902 6.34923C81.6671 6.34923 81.4267 6.3464 81.1962 6.34499C80.9827 6.34357 80.7777 6.34075 80.6801 6.34075C80.4906 6.34075 80.4439 6.36478 80.4439 6.54437C80.4439 6.6476 80.4439 8.13523 80.4454 10.0626C80.4454 10.1687 80.3902 10.2578 80.3407 10.3356C80.3096 10.3836 80.2757 10.4388 80.2757 10.4713C80.2757 10.4968 80.2983 10.5448 80.3181 10.5859C80.3506 10.6537 80.3874 10.7315 80.3874 10.8192C80.3874 10.846 80.3987 10.8828 80.41 10.921C80.4256 10.9747 80.4439 11.0355 80.4439 11.1034C80.4439 11.7935 80.4425 12.5147 80.4411 13.2316C80.4383 14.6683 80.434 16.0245 80.4454 17.1218C80.4468 17.2038 80.4242 17.2689 80.3775 17.3155C80.3478 17.3452 80.2941 17.3806 80.2064 17.3806C80.1526 17.3806 80.1017 17.3679 80.0565 17.3565C80.0381 17.3523 80.0112 17.3452 80.0027 17.3452C79.9632 17.3481 79.8698 17.4569 79.8698 17.5192C79.8755 17.5319 79.9292 17.5616 80.0353 17.5616C80.0692 17.5616 80.1017 17.5588 80.1272 17.5517C80.2149 17.5305 80.2955 17.5531 80.3534 17.6111C80.4496 17.7072 80.4482 17.8741 80.4468 17.9547V17.9674V19.3448C80.4468 19.5837 80.4468 20.1423 79.7991 20.1423H79.7878C79.7327 20.1409 79.6506 20.1409 79.5517 20.1409C78.9139 20.1409 77.5748 20.1508 77.3457 20.1579L77.3216 20.1564Z" fill="black"/>
<path opacity="0.3" d="M94.5224 20.0421C94.1307 20.0421 93.9129 19.8271 93.8776 19.4029C93.8436 18.9872 93.8875 3.4986 93.8903 3.3586C93.896 2.94852 94.2396 2.636 94.6893 2.63035C94.9127 2.62752 96.9179 2.63176 98.1184 2.63317C98.5625 2.63459 98.8962 2.63459 98.9881 2.63459C99.3614 2.63459 99.5976 2.85519 99.6032 3.21012C99.6061 3.44062 99.6145 4.60018 99.6117 4.81371C99.6061 5.16016 99.3275 5.45005 98.9923 5.46136C98.759 5.46843 97.9261 5.48257 97.6885 5.48257C97.5415 5.48257 97.4609 5.67913 97.4609 5.81347C97.4609 6.02841 97.4623 8.41964 97.4665 8.62045C97.4722 8.8566 97.738 8.86226 97.7692 8.86226C97.871 8.86226 98.0887 8.8665 98.3235 8.87074C98.5893 8.8764 98.8919 8.88205 99.0546 8.88205C99.3939 8.88205 99.6075 9.08851 99.6259 9.43355C99.6386 9.67536 99.6244 11.0018 99.6131 11.2761C99.5976 11.6551 99.2511 11.9464 98.9513 11.9563C98.7321 11.9634 97.9756 11.9634 97.7253 11.9634C97.6263 11.9634 97.5924 11.9973 97.5811 12.01C97.5061 12.085 97.4976 12.2688 97.4991 12.4555C97.5005 12.5714 97.4962 13.1682 97.492 13.9247C97.4849 15.1168 97.475 16.7501 97.4807 16.9396C97.4863 17.1135 97.5288 17.1531 97.7069 17.1531C97.9388 17.1531 98.7307 17.1545 98.9697 17.1573C99.3388 17.163 99.5962 17.4656 99.5962 17.8955C99.5962 18.1203 99.5919 19.1554 99.5877 19.4298C99.582 19.8031 99.3756 20.035 99.0489 20.035C98.9344 20.035 97.9374 20.0378 96.9065 20.0393C95.8021 20.0393 94.6624 20.0421 94.5224 20.0421Z" fill="black"/>
<path opacity="0.3" d="M50.947 22.1221C50.8325 22.1221 50.2442 22.1207 49.6348 22.1207C48.9843 22.1193 48.3126 22.1179 48.1726 22.1179C47.7795 22.1179 47.5631 21.9029 47.5278 21.4787C47.5122 21.2977 47.5193 17.9675 47.5278 14.1113C47.5348 10.7344 47.5419 6.90645 47.5362 4.85177C47.5348 4.65097 47.6692 4.60147 47.7257 4.58168C47.7286 4.58026 47.7328 4.57885 47.7356 4.57885C47.7356 4.57743 47.7356 4.57602 47.7356 4.57461C47.7356 4.57178 47.7356 4.56895 47.7356 4.56612C47.7328 4.56471 47.73 4.56471 47.7271 4.56329C47.6748 4.54774 47.5391 4.50673 47.5362 4.3229C47.532 3.96937 47.5334 3.63706 47.5391 3.33586V3.30758C47.5447 2.89042 47.8671 2.58498 48.3055 2.57932C48.5289 2.57649 50.5992 2.58073 51.8266 2.58215C52.2763 2.58356 52.6128 2.58356 52.7033 2.58356C53.0767 2.58356 53.3128 2.80416 53.3199 3.1591C53.3241 3.3896 53.3312 4.95924 53.3284 5.16853C53.3227 5.51498 53.0441 5.80487 52.709 5.81477C52.4813 5.82184 51.9525 5.83598 51.7092 5.83598C51.5622 5.83598 51.4801 6.03254 51.4801 6.16829C51.4801 6.36485 51.483 9.38111 51.4872 9.58333C51.4901 9.72191 51.5919 9.79261 51.7898 9.79261C51.8917 9.79261 52.0274 9.78978 52.1745 9.78695C52.3484 9.78271 52.5379 9.77989 52.7033 9.77989C53.0427 9.77989 53.2563 9.98634 53.2746 10.3314C53.2874 10.5661 53.2732 12.1584 53.2619 12.4412C53.2464 12.8174 52.9239 13.079 52.6326 13.0889C52.4262 13.0945 52.0797 13.0945 51.746 13.0945C51.6583 13.0945 51.6173 13.1256 51.5933 13.1483C51.5212 13.2218 51.4844 13.3788 51.4858 13.6177C51.4872 13.7903 51.483 14.0307 51.4773 14.3092C51.466 14.9286 51.4519 15.7756 51.4858 16.5067C51.4929 16.6552 51.4236 16.7316 51.3783 16.7825C51.343 16.8221 51.3288 16.8376 51.3303 16.8956C51.3303 16.8984 51.3303 16.9027 51.3303 16.9055C51.4547 16.9592 51.449 17.1035 51.4476 17.1685C51.442 17.3241 51.3402 17.399 51.2581 17.4598C51.1846 17.5136 51.1068 17.5701 51.0517 17.7016C51.0276 17.7568 51.0305 17.795 51.0347 17.8063C51.0361 17.8063 51.0418 17.8077 51.0517 17.8077C51.0587 17.8077 51.0715 17.8049 51.0856 17.8035C51.1196 17.7978 51.1634 17.7921 51.2086 17.7921C51.2963 17.7921 51.3656 17.8176 51.4151 17.8671C51.4476 17.8996 51.4858 17.9576 51.4844 18.0537C51.4759 19.8327 51.4844 21.4999 51.4844 21.5169C51.4801 21.8902 51.2737 22.1221 50.947 22.1221Z" fill="black"/>
<path opacity="0.3" d="M38.6995 20.0108C38.2413 20.0108 37.7803 20.0094 37.5286 20.008L37.3448 20.0066C37.11 20.0066 36.8739 19.8538 36.8739 19.5116V12.9531C36.7551 13.5724 36.4355 15.3952 36.1923 16.7838C35.9618 18.0947 35.7808 19.1312 35.7539 19.2444L35.7341 19.332C35.6747 19.6035 35.6069 19.9118 35.2929 19.9118C35.1756 19.9118 34.938 19.9104 34.7061 19.909C34.4883 19.9076 34.2776 19.9062 34.1786 19.9062C33.9156 19.9062 33.7275 19.7421 33.6498 19.4452C33.5847 19.2005 32.4308 13.6177 32.2837 12.9036C32.2625 13.6389 32.2498 18.8753 32.2498 19.3914C32.2498 19.7209 32.1027 19.8807 31.7987 19.8807C31.7294 19.8807 31.5102 19.8878 31.2317 19.8963C30.7707 19.9104 30.1386 19.9302 29.7978 19.9302C29.6846 19.9302 29.6125 19.9274 29.5701 19.9231C29.177 19.8849 29.177 19.5555 29.177 19.3971C29.177 19.3829 29.177 19.2995 29.1756 19.1539C29.1487 13.8213 29.1473 9.40086 29.1713 6.70842C29.1727 6.49914 29.3693 6.45247 29.464 6.43126C29.4754 6.42843 29.4881 6.4256 29.5008 6.42278C29.4315 6.38318 29.3042 6.30965 29.3113 6.1541C29.3184 5.99713 29.4259 5.93774 29.5051 5.91229C29.4711 5.87694 29.4301 5.83593 29.4004 5.80623C29.2491 5.65775 29.1699 5.57573 29.1699 5.47816C29.1685 4.26063 29.1685 3.47863 29.1685 3.47298C29.1643 3.22834 29.218 3.04592 29.3283 2.93138C29.4117 2.84512 29.522 2.80128 29.6549 2.79845C29.8232 2.79563 31.991 2.78431 32.8678 2.78431C33.0841 2.78431 33.2086 2.78573 33.2453 2.78714C33.5324 2.79845 33.8166 3.03178 33.8774 3.31036C33.9015 3.415 34.0443 4.21538 34.2083 5.14161C34.3893 6.15693 34.6156 7.42113 34.6425 7.5286C34.6439 7.53708 34.6467 7.54557 34.6495 7.55264C34.6509 7.5484 34.6509 7.54557 34.6524 7.54132C34.7117 7.25851 35.3552 3.35419 35.3608 3.32025C35.4089 3.00491 35.6479 2.78573 35.9533 2.77583C35.9703 2.77583 36.0141 2.77441 36.0792 2.77441C36.4836 2.77441 37.7662 2.78573 38.6146 2.7928C39.0558 2.79704 39.3882 2.79987 39.4433 2.79987C39.8435 2.79987 40.2578 3.00915 40.2748 3.41076C40.2889 3.74448 40.4586 19.2401 40.4586 19.3547C40.4586 19.7831 40.2451 19.9656 40.0457 19.9938C40.0146 19.9981 39.9283 20.0108 38.6995 20.0108Z" fill="black"/>
<path opacity="0.3" d="M60.2886 20.0802C59.0258 20.0802 57.3529 20.0746 56.9725 20.0661C55.7451 20.0378 55.1215 19.3294 55.1187 17.9563C55.1187 17.7173 55.3944 17.6961 55.5584 17.6833C55.5627 17.6833 55.5669 17.6819 55.5712 17.6819C55.5443 17.6607 55.5174 17.6395 55.4934 17.6211C55.3195 17.4854 55.1215 17.3327 55.1215 17.129C55.1384 12.7241 55.1724 5.23649 55.1936 4.5747C55.2389 3.21999 56.4168 2.41113 57.5311 2.41113C57.8903 2.41113 58.5351 2.41396 59.1799 2.41538C59.9916 2.4182 60.8061 2.42103 61.0494 2.41962H61.0649C61.7437 2.41962 62.3843 2.68971 62.8721 3.18181C63.3105 3.62443 63.5608 4.18299 63.5551 4.71611C63.5537 4.79671 63.5537 5.03993 63.5537 5.33689C63.5537 5.45568 63.4717 5.52921 63.4052 5.57729C63.4745 5.62113 63.4887 5.69042 63.4887 5.73567V5.74698C63.4901 5.79223 63.4915 5.93081 63.3374 5.98596C63.3077 5.99586 63.2794 5.99727 63.1196 6.00293C63.0588 6.00576 62.9584 6.00859 62.8806 6.01424C62.8877 6.03828 62.8948 6.06374 62.8948 6.09202C62.8948 6.14576 62.8778 6.18959 62.8636 6.22494C62.8608 6.2306 62.858 6.23908 62.8552 6.24616C62.8905 6.28575 62.9754 6.35504 63.0305 6.39746C63.1733 6.51342 63.2568 6.58271 63.2822 6.6619C63.2964 6.70432 63.2964 6.75099 63.2964 6.80048C63.2964 6.81745 63.2964 6.8429 63.2978 6.86411C63.3586 6.86694 63.4349 6.87826 63.4915 6.93623C63.5566 7.00411 63.5537 7.08895 63.5523 7.15825C63.5467 7.34915 63.4873 7.43258 63.4335 7.49621C63.4321 7.49904 63.4293 7.50187 63.4279 7.50328C63.4321 7.50753 63.4364 7.51177 63.4392 7.51601C63.4816 7.56268 63.5523 7.64045 63.5523 7.7861C63.5523 7.91054 63.5523 8.03781 63.5523 8.16649C63.5523 8.25982 63.4844 8.32487 63.4293 8.37719C63.4151 8.38992 63.3954 8.40972 63.3883 8.41962C63.3558 8.50871 63.3232 8.62042 63.3105 8.70526C63.3883 8.72506 63.5523 8.7788 63.5523 8.97536C63.5509 10.8292 63.5495 12.956 63.5467 14.6643C63.5438 16.34 63.5424 17.6635 63.5438 17.8446C63.5523 19.2148 62.6685 20.0534 61.8087 20.0732C61.6164 20.0788 61.0776 20.0802 60.2886 20.0802ZM59.0088 5.73567C58.7896 5.73567 58.7303 5.79789 58.7303 6.02414C58.7303 6.05525 58.7303 6.21222 58.7288 6.46817C58.726 7.64045 58.7189 11.2082 58.7204 13.7833C58.7204 13.9318 58.7204 14.076 58.7204 14.2174V14.5426C58.7232 16.3343 58.7317 16.6751 58.7359 16.7189C58.7585 16.9183 58.8321 16.9226 58.9551 16.9282C59.0611 16.9339 59.1884 16.931 59.3114 16.9296C59.3737 16.9282 59.4331 16.9282 59.4896 16.9282C59.5745 16.9282 59.6664 16.9098 59.6933 16.6921C59.7258 16.4022 59.7597 6.4809 59.7597 5.98313C59.7597 5.75405 59.5476 5.74698 59.5236 5.74698C59.4529 5.74698 59.3553 5.74415 59.2591 5.74274C59.1672 5.7385 59.0753 5.73567 59.0088 5.73567Z" fill="black"/>
<path opacity="0.3" d="M70.3357 19.5595C70.3273 19.5553 70.3188 19.5468 70.306 19.5426C70.2877 19.5369 70.2834 19.5369 70.2665 19.5426C70.2495 19.5482 70.0883 19.5327 70.0854 19.5921C70.1095 19.7688 70.2113 19.947 70.4955 19.9555C70.5153 19.9541 70.6002 19.8763 70.5917 19.8593C70.5083 19.7787 70.4305 19.8975 70.3471 19.7731C70.3131 19.725 70.3555 19.5694 70.3357 19.5595Z" fill="black"/>
<path opacity="0.3" d="M70.497 20.09H70.4913C70.1887 20.0801 69.9922 19.9048 69.9526 19.6092L69.9512 19.5965V19.5852C69.9597 19.4113 70.1661 19.4098 70.234 19.4084H70.2425C70.2736 19.3999 70.3174 19.4042 70.3443 19.4127L70.3556 19.4155C70.3768 19.424 70.3924 19.4339 70.3994 19.4395C70.4871 19.482 70.4786 19.5795 70.473 19.6432C70.4715 19.6573 70.4701 19.6799 70.4687 19.6969C70.5493 19.687 70.6271 19.7054 70.6851 19.762L70.702 19.7775L70.7119 19.7987C70.7218 19.8199 70.7416 19.8751 70.7035 19.9415C70.6907 19.9628 70.5988 20.0844 70.5012 20.0886L70.497 20.09Z" fill="black"/>
<path opacity="0.3" d="M73.051 20.0589C72.7512 20.0589 72.1205 20.049 71.5647 20.0405L71.0189 20.032C70.8704 20.0263 70.8563 19.8666 70.852 19.8142C70.8506 19.8029 70.8506 19.793 70.8492 19.7831C70.828 19.7492 70.7728 19.7053 70.729 19.6686C70.6838 19.6318 70.6371 19.5936 70.6003 19.5498C70.5862 19.5342 70.5678 19.5144 70.5466 19.4946C70.4674 19.4169 70.3783 19.3278 70.3613 19.2189C70.3613 19.2161 70.3599 19.2147 70.3599 19.2132C70.3415 19.2189 70.3118 19.2387 70.3019 19.2755L70.2963 19.2938C70.2793 19.3476 70.2397 19.4734 70.1125 19.4734L70.0955 19.472C70.063 19.4678 69.9583 19.4437 69.9612 19.2811C69.9612 19.0945 69.9682 17.7666 69.9739 16.4826C69.9809 15.2128 69.9866 14.0136 69.9866 13.8524C69.9866 13.4678 69.8904 13.4678 69.7674 13.4678H69.7505C69.6416 13.4706 69.5539 13.4678 69.4634 13.465C69.3998 13.4635 69.3347 13.4607 69.2598 13.4607C69.0278 13.4607 69.0279 13.5795 69.0279 13.6431C69.0279 13.7704 69.0208 15.135 69.0151 16.4558C69.0095 17.7751 69.0024 19.1383 69.0024 19.2642C69.0024 19.7266 68.7959 20.0122 68.4622 20.0122C68.3802 20.0122 68.2147 20.0136 68.0069 20.015C67.6548 20.0179 67.1796 20.0207 66.7865 20.0207C66.4217 20.0207 66.194 20.0179 66.0936 20.0122C65.6892 19.9896 65.5181 19.7973 65.5181 19.3716C65.5181 19.1581 65.5393 13.5484 65.5548 9.04025C65.5647 6.16257 65.5746 3.67659 65.5746 3.6172C65.5746 3.25943 65.7853 2.69238 66.3481 2.69238C66.4839 2.69238 67.1641 2.69521 67.9998 2.70087C69.3503 2.70794 71.0302 2.71642 71.5676 2.71642C71.6411 2.71642 71.692 2.71642 71.7175 2.71642H71.7486C73.0213 2.71642 73.7255 3.79255 73.7439 4.5703C73.7481 4.74423 73.7495 5.15573 73.7509 5.79632C73.7509 5.91228 73.642 5.96884 73.5459 6.01833C73.5303 6.02682 73.5091 6.03813 73.4907 6.04803C73.5091 6.06217 73.5374 6.08055 73.5558 6.09328C73.6477 6.15409 73.7509 6.22338 73.7509 6.34075C73.7495 7.56677 73.7439 9.10247 73.7354 9.34711C73.6958 10.5731 72.8417 11.1317 72.5193 11.341C72.4825 11.365 72.4528 11.3834 72.433 11.399C72.3425 11.4668 72.3015 11.5446 72.3071 11.587C72.3114 11.6196 72.3524 11.6422 72.3863 11.6549C72.6069 11.7426 73.7043 12.222 73.7113 12.9856C73.717 13.612 73.717 18.3167 73.717 19.2528C73.717 19.6884 73.676 20.049 73.1669 20.0589C73.1372 20.0589 73.099 20.0589 73.051 20.0589ZM69.2117 5.49795V5.63228C69.1693 5.63228 69.083 5.63228 69.083 5.99712C69.083 5.99712 69.0858 9.23681 69.0858 9.46448V9.49418C69.0858 9.76992 69.1085 9.81942 69.1735 9.81942H69.1947C69.4139 9.82225 69.5991 9.82507 69.8551 9.82225C69.9725 9.82083 70.1535 9.47862 70.2114 9.03884C70.2539 8.72491 70.2355 7.14112 70.2284 6.54579C70.227 6.43266 70.2256 6.3464 70.2256 6.30115C70.2242 6.04944 69.6981 5.6436 69.5383 5.63794L69.4917 5.63653C69.3842 5.63228 69.3842 5.63228 69.3149 5.63228L69.2131 5.63087L69.2117 5.49795Z" fill="black"/>
<path opacity="0.3" d="M91.1878 20.0929C90.9035 20.0929 90.294 20.0831 89.7553 20.0746C89.3141 20.0675 88.8983 20.0604 88.7414 20.0604C88.3256 20.0604 88.0881 19.7875 88.0881 19.3124C88.0881 19.1314 88.0951 17.8035 88.1008 16.5181C88.1064 15.2483 88.1135 14.0491 88.1135 13.8879C88.1135 13.5033 88.0174 13.5033 87.8943 13.5033H87.8788C87.7699 13.5061 87.6808 13.5033 87.5903 13.5004C87.5267 13.499 87.4616 13.4962 87.3881 13.4962C87.1548 13.4962 87.1548 13.615 87.1548 13.6786C87.1548 13.8059 87.1477 15.1705 87.142 16.4913C87.1364 17.8106 87.1293 19.1738 87.1293 19.2996C87.1293 19.7621 86.9228 20.0477 86.5891 20.0477C86.5071 20.0477 86.3416 20.0491 86.1338 20.0505C85.7817 20.0534 85.3065 20.0562 84.9134 20.0562C84.5486 20.0562 84.3209 20.0534 84.2205 20.0477C83.8161 20.0237 83.6436 19.8328 83.6436 19.4071C83.6436 19.3732 83.645 19.195 83.6478 18.9037C83.6973 13.8738 83.71 10.002 83.6874 7.39721C83.686 7.21762 83.8387 7.16813 83.9264 7.14833C83.9094 7.13419 83.8924 7.11864 83.8783 7.10732C83.7892 7.03379 83.6888 6.94895 83.6888 6.82592C83.6888 6.79905 83.6874 6.76653 83.6874 6.73542C83.686 6.70572 83.686 6.67603 83.686 6.65057C83.686 6.5728 83.7185 6.47947 83.8642 6.44694C83.8472 6.42007 83.826 6.39179 83.8048 6.36351C83.7482 6.28998 83.6916 6.21362 83.6916 6.11746L83.6987 4.12359C83.7001 3.8337 83.7001 3.66542 83.7001 3.64986C83.7001 3.2921 83.9094 2.72363 84.4736 2.72363C84.6122 2.72363 85.3136 2.72788 86.1677 2.73212C87.5139 2.73919 89.1896 2.74767 89.7072 2.74767C89.7737 2.74767 89.8203 2.74767 89.8444 2.74767H89.8755C91.1496 2.74767 91.8524 3.8238 91.8708 4.60014C91.8863 5.21668 91.8764 8.95979 91.8623 9.37553C91.8227 10.6016 90.9686 11.1587 90.6476 11.3694C90.6108 11.3934 90.5811 11.4132 90.5599 11.4288C90.4694 11.4967 90.4284 11.5744 90.4341 11.6169C90.4383 11.6494 90.4793 11.672 90.5132 11.6862C90.7324 11.7738 91.8312 12.2518 91.8382 13.0168C91.8411 13.2261 91.8411 13.9049 91.8425 15.0333C91.8425 15.1309 91.8184 15.1917 91.7986 15.2398C91.7831 15.2794 91.7732 15.3034 91.7746 15.3529C91.7817 15.5311 91.6643 15.6046 91.5936 15.6485C91.5286 15.6895 91.5158 15.6994 91.5158 15.7559C91.5158 15.7983 91.5243 15.8167 91.537 15.845C91.554 15.8832 91.5795 15.9341 91.5752 16.0147C91.5724 16.0812 91.5427 16.125 91.5243 16.1533C91.513 16.1688 91.5059 16.1802 91.5017 16.1999C91.5229 16.2056 91.5597 16.2113 91.6205 16.2141C91.6473 16.2155 91.6657 16.2169 91.6855 16.2226L91.6954 16.2254C91.8298 16.2608 91.8425 16.3442 91.8439 16.4347V19.2841C91.8439 19.7196 91.8029 20.0802 91.2938 20.0901C91.2669 20.0929 91.2316 20.0929 91.1878 20.0929ZM87.34 5.53202V5.66636C87.2976 5.66636 87.2113 5.66636 87.2113 6.0312C87.2113 6.0312 87.2141 9.27089 87.2141 9.49856V9.52825C87.2141 9.804 87.2368 9.85349 87.3018 9.85491L87.3923 9.85632C87.5818 9.85915 87.7543 9.86056 87.9806 9.85774C88.098 9.85632 88.279 9.51411 88.3384 9.07433C88.3794 8.76323 88.3624 7.18934 88.3553 6.59684C88.3539 6.47522 88.3525 6.38331 88.3525 6.33523C88.3511 6.08493 87.825 5.67768 87.6667 5.67202L87.6228 5.6706C87.5139 5.66636 87.5139 5.66636 87.4446 5.66636L87.3414 5.66495L87.34 5.53202Z" fill="black"/>
<path opacity="0.3" d="M106.934 19.9091C106.313 19.9091 105.492 19.9077 104.744 19.9063C103.766 19.9049 102.912 19.902 102.796 19.9049H102.775C102.467 19.9049 102.082 19.7493 101.774 19.499C101.415 19.2077 101.217 18.8429 101.217 18.4738C101.217 18.273 101.213 17.0272 101.21 15.8521C101.207 14.8014 101.204 13.8073 101.204 13.6631C101.204 13.1922 101.372 12.9532 101.706 12.9532H104.281C104.734 12.9532 104.82 13.2162 104.845 13.4736C104.864 13.6546 104.85 14.8834 104.834 16.0204C104.83 16.3088 104.827 16.5238 104.827 16.5888C104.827 16.7345 104.864 16.9791 105.002 16.9791C105.084 16.9791 105.155 16.9805 105.222 16.9805C105.34 16.9819 105.444 16.9833 105.568 16.9791C105.659 16.9763 105.742 16.8278 105.76 16.6327C105.784 16.4022 105.797 13.7833 105.797 13.3421C105.797 13.0776 105.765 13.0437 105.626 12.9447C105.489 12.8471 103.362 11.2633 102.219 10.4121C101.872 10.1533 101.624 9.96944 101.573 9.93126L101.536 9.9044C101.377 9.78844 101.197 9.65693 101.197 9.25957V9.07574C101.196 8.84241 101.194 8.43232 101.194 7.94446C101.194 7.81578 101.252 7.75214 101.283 7.71679C101.252 7.69275 101.194 7.64326 101.194 7.54144C101.194 7.48771 101.214 7.43822 101.249 7.40286C101.316 7.33499 101.416 7.32933 101.514 7.32933H101.585C101.627 7.32933 101.654 7.32792 101.671 7.32509C101.667 7.28549 101.65 7.26145 101.628 7.23034C101.604 7.19499 101.572 7.14833 101.57 7.08186C101.57 7.01682 101.587 6.96308 101.6 6.92066C101.61 6.88672 101.618 6.85985 101.617 6.83581C101.614 6.79905 101.565 6.75097 101.528 6.7142C101.515 6.70147 101.504 6.69016 101.494 6.68026C101.48 6.67319 101.446 6.66046 101.423 6.65057C101.32 6.61097 101.19 6.56148 101.19 6.43138C101.189 5.40758 101.187 4.26216 101.189 4.17166C101.207 3.39674 101.715 2.56383 102.62 2.54545C102.741 2.54262 103.095 2.54121 103.543 2.53979C103.625 2.53979 103.684 2.58363 103.737 2.62181C103.786 2.65858 103.83 2.68969 103.898 2.69252C103.914 2.54545 104.042 2.54121 104.056 2.54121H104.089C104.165 2.54121 104.233 2.54121 104.302 2.54262C104.375 2.54262 104.448 2.54404 104.534 2.54404H104.553C104.636 2.54404 104.69 2.58787 104.731 2.6204C104.768 2.65009 104.795 2.67272 104.852 2.67696C104.86 2.67696 104.865 2.67838 104.871 2.67838C104.895 2.67838 104.895 2.67838 104.913 2.65009C104.935 2.61757 104.984 2.54121 105.084 2.54121H106.066C106.841 2.54121 107.583 2.54262 107.757 2.54687C108.464 2.56525 109.256 3.12523 109.256 3.84642C109.256 4.20277 109.264 5.32556 109.27 6.31684C109.276 7.08045 109.28 7.7578 109.28 7.92325C109.28 8.14668 109.28 8.66848 108.744 8.68262C108.415 8.6911 106.59 8.6911 106.572 8.6911C106.551 8.6911 106.531 8.6911 106.51 8.69252C106.487 8.69252 106.465 8.69393 106.442 8.69393C106.309 8.69393 105.955 8.69393 105.923 8.27677C105.906 8.05476 105.912 7.19499 105.914 6.56713C105.916 6.2631 105.917 5.99867 105.916 5.9421C105.906 5.65929 105.709 5.62818 105.626 5.62818H105.196C105.021 5.62818 104.888 5.77241 104.888 5.9619C104.888 6.09483 104.884 6.54309 104.881 6.96591C104.878 7.34347 104.875 7.70124 104.875 7.7974C104.875 7.99254 104.875 8.05052 105.019 8.21455C105.149 8.36162 107.155 9.80824 108.01 10.4262C108.351 10.6722 108.597 10.849 108.669 10.9042C108.959 11.1219 109.305 11.4613 109.305 11.8474C109.305 11.9336 109.303 12.437 109.298 13.1257C109.288 14.8749 109.273 17.8021 109.279 18.0722C109.298 18.9405 108.594 19.8837 107.907 19.9063C107.826 19.9077 107.507 19.9091 106.934 19.9091Z" fill="black"/>
<path opacity="0.3" d="M117.165 19.8084C116.543 19.8084 115.723 19.807 114.973 19.8056C113.996 19.8042 113.142 19.8014 113.026 19.8042H113.005C112.696 19.8042 112.312 19.6486 112.002 19.3983C111.643 19.107 111.445 18.7422 111.445 18.3717C111.445 18.1709 111.441 16.9265 111.438 15.7514C111.435 14.7007 111.432 13.7052 111.432 13.5624C111.432 13.0915 111.601 12.8525 111.934 12.8525H114.511C114.962 12.8525 115.049 13.1155 115.075 13.3715C115.093 13.5525 115.079 14.7262 115.064 15.914C115.059 16.2053 115.057 16.4231 115.057 16.4881C115.057 16.6338 115.093 16.8798 115.232 16.8798C115.314 16.8798 115.385 16.8812 115.45 16.8812C115.508 16.8827 115.561 16.8827 115.617 16.8827C115.675 16.8827 115.732 16.8812 115.798 16.8798C115.888 16.877 115.97 16.7271 115.99 16.532C116.012 16.3015 116.027 13.6826 116.027 13.2414C116.027 12.9769 115.994 12.943 115.856 12.844C115.711 12.7408 113.286 10.9336 112.25 10.1629L111.767 9.80371C111.608 9.68775 111.427 9.55624 111.427 9.15747C111.425 8.9199 111.415 4.25622 111.42 4.07239C111.438 3.29888 111.946 2.46598 112.851 2.44759C113.008 2.44476 113.545 2.44194 114.253 2.44052C114.345 2.44052 114.395 2.49426 114.417 2.51971C114.432 2.53527 114.444 2.54941 114.521 2.55082C114.543 2.51405 114.594 2.44194 114.712 2.43911L114.765 2.43769C114.819 2.43628 114.871 2.43487 114.925 2.43911C115.008 2.44476 115.068 2.48436 115.11 2.51264C115.131 2.52678 115.146 2.53668 115.16 2.54234C115.185 2.49991 115.236 2.43769 115.338 2.43769H115.486C116.151 2.43769 117.725 2.43911 117.989 2.44618C118.696 2.46456 119.487 3.02454 119.487 3.74573C119.487 4.10208 119.495 5.22487 119.501 6.21615C119.507 6.97976 119.511 7.65711 119.511 7.82256C119.511 8.04599 119.511 8.56779 118.975 8.58193C118.644 8.59042 116.821 8.59042 116.803 8.59042C116.782 8.59042 116.762 8.59042 116.741 8.59183C116.718 8.59183 116.691 8.59042 116.673 8.59324C116.539 8.59324 116.186 8.59183 116.155 8.17609C116.138 7.95407 116.144 7.09572 116.147 6.46928C116.148 6.16242 116.15 5.89798 116.148 5.84142C116.137 5.5586 115.942 5.5289 115.858 5.5289H115.428C115.253 5.5289 115.12 5.67314 115.12 5.86263C115.12 5.99555 115.117 6.44382 115.113 6.86805C115.11 7.24561 115.107 7.60338 115.107 7.69812C115.107 7.89327 115.107 7.95125 115.252 8.11528C115.382 8.26235 117.383 9.70614 118.237 10.3241C118.58 10.5716 118.828 10.7512 118.901 10.8063C119.191 11.0241 119.538 11.3649 119.538 11.7495C119.538 11.8329 119.535 12.3123 119.532 12.9727C119.528 13.6868 119.524 14.6116 119.519 15.4728C119.518 15.6524 119.371 15.7486 119.254 15.8277C119.193 15.8688 119.123 15.914 119.108 15.9522C119.009 16.1813 118.959 16.416 118.993 16.5009C119.005 16.5306 119.017 16.5376 119.06 16.5574C119.115 16.5843 119.232 16.6394 119.228 16.8063C119.224 17.0113 119.102 17.0679 119.037 17.0976C119.026 17.1033 119.009 17.1103 119.005 17.1146C119.005 17.1146 118.998 17.1259 118.998 17.1641C118.995 17.2475 119.029 17.273 119.204 17.321C119.323 17.3536 119.524 17.4087 119.512 17.6152C119.504 17.7891 119.508 17.881 119.512 17.9362C119.514 17.9517 119.514 17.9644 119.514 17.9772C119.534 18.8468 118.829 19.79 118.144 19.8113C118.057 19.807 117.738 19.8084 117.165 19.8084Z" fill="black"/>
<path opacity="0.3" d="M125.31 22.4292C125.015 22.4292 124.571 22.2482 124.559 21.749C124.554 21.4521 124.534 19.5713 124.534 19.3239C124.534 18.8445 124.739 18.457 124.917 18.1728C125.073 17.9225 129.379 10.4434 129.478 10.2496C129.644 9.92298 129.705 9.51713 129.705 9.24563C129.705 9.10563 129.704 8.4 129.702 7.7184C129.701 7.07923 129.7 6.46128 129.7 6.34673C129.7 6.24492 129.7 6.1431 129.673 6.08654C129.663 6.06533 129.643 6.02432 129.52 6.02432H129.506C129.306 6.02998 129.246 6.02856 129.131 6.02573L129.024 6.02432C128.804 6.02432 128.785 6.06816 128.785 6.19401L128.786 6.61258C128.787 7.38326 128.79 8.81857 128.785 9.03351C128.78 9.23007 128.766 9.83106 128.211 9.83106C128.096 9.83106 127.458 9.83389 126.798 9.83672C126.092 9.83954 125.363 9.84379 125.223 9.84379C124.873 9.84379 124.499 9.65288 124.499 9.2329C124.499 9.0123 124.504 7.07923 124.507 5.76978C124.507 5.59585 124.705 5.58312 124.77 5.57888C124.784 5.57747 124.798 5.57747 124.81 5.57605C124.811 5.57605 124.862 5.5704 124.885 5.54919C124.875 5.54211 124.863 5.53646 124.853 5.5308C124.771 5.48131 124.633 5.40071 124.631 5.21829C124.63 5.09102 124.736 5.04294 124.776 5.02597C124.777 5.02456 124.78 5.02456 124.781 5.02314C124.779 4.96092 124.763 4.84355 124.753 4.77426C124.753 4.77426 124.735 4.73608 124.612 4.6979C124.555 4.68235 124.513 4.6272 124.511 4.56215C124.504 4.05873 124.753 3.50441 125.176 3.07452C125.572 2.67292 126.043 2.4608 126.495 2.48202C126.652 2.4905 127.052 2.49333 127.684 2.49333C128.216 2.49333 128.899 2.4905 129.772 2.48484C129.876 2.48484 129.967 2.56686 130.033 2.62625L130.055 2.64464C130.081 2.66726 130.137 2.68282 130.192 2.68282C130.206 2.68282 130.219 2.6814 130.228 2.67999C130.23 2.67716 130.23 2.67292 130.231 2.67009C130.245 2.61777 130.282 2.47919 130.429 2.47919H130.497C130.829 2.47919 131.101 2.47495 131.262 2.47212L131.402 2.4707C132.649 2.4707 134.178 3.65996 134.184 5.0486C134.186 5.70191 134.162 9.86217 134.154 10.3472C134.143 10.9652 134.015 11.4954 133.772 11.9253L133.75 11.9663C133.301 12.771 132.854 13.5459 132.42 14.2657C132.389 14.3166 132.296 14.4721 132.14 14.4721C132.099 14.4721 132.063 14.4608 132.03 14.4452C132.116 14.5358 132.177 14.6248 132.113 14.7238C131.986 14.9218 131.801 14.9416 131.691 14.9529C131.668 14.9557 131.637 14.9586 131.627 14.9628C131.604 14.9727 131.535 15.0052 131.518 15.1876C131.512 15.2584 131.486 15.3418 131.459 15.4309C131.44 15.4903 131.411 15.5878 131.412 15.6175C131.415 15.6798 131.426 15.708 131.436 15.7363C131.478 15.8537 131.464 15.923 131.355 16.1068C130.6 17.3823 129.992 18.4613 129.967 18.5065C129.824 18.7596 129.827 18.8742 129.84 18.8968C129.842 18.9011 129.862 18.9138 129.917 18.9138C130.074 18.9138 130.885 18.9067 131.668 18.8996C132.415 18.894 133.119 18.8883 133.25 18.8883C133.711 18.8883 133.95 19.0495 133.959 19.3649C133.964 19.5812 133.959 20.5329 133.955 21.1636C133.953 21.4309 133.952 21.643 133.952 21.7236V21.7391C133.952 21.9923 133.952 22.3727 133.429 22.4066C133.047 22.4278 125.387 22.4292 125.31 22.4292Z" fill="black"/>
<path opacity="0.3" d="M42.1262 18.8643C42.0852 18.8643 42.0442 18.8573 42.0046 18.8445C41.0911 18.5433 38.0621 17.2806 37.4583 13.71C37.4159 13.4568 37.4512 13.2617 37.5629 13.1288C37.686 12.9831 37.8585 12.9619 37.9504 12.9619C37.973 12.9619 37.99 12.9633 37.9985 12.9647C38.1088 12.9704 40.1522 13.068 40.3869 13.1047C40.4152 13.109 40.4449 13.1118 40.4746 13.116C40.674 13.1387 40.9483 13.1712 41.1293 13.5473C41.3414 13.9871 41.9226 14.7847 42.549 15.1792C42.8545 15.3729 42.8828 15.496 42.8644 15.899C42.8474 16.2624 42.706 18.0781 42.6692 18.3341C42.6339 18.5829 42.4006 18.8643 42.1262 18.8643Z" fill="black"/>
<path opacity="0.3" d="M40.9382 11.5006C40.8831 11.5006 40.8209 11.4978 40.7502 11.495L40.6894 11.4921C40.3203 11.4752 38.2995 11.3479 38.0606 11.314C37.8979 11.2899 37.8117 11.2023 37.7678 11.1316C37.6929 11.0099 37.683 10.8402 37.741 10.6649C37.9517 10.0257 38.39 9.07546 39.2809 8.16902C39.3417 8.10539 39.4492 8.11246 39.5934 8.13933C39.6557 8.15064 39.725 8.16478 39.7773 8.16478C39.7928 8.16478 39.8041 8.16337 39.8098 8.16195C39.8169 8.13226 39.8056 8.05448 39.7985 8.01065C39.7829 7.90317 39.7645 7.78298 39.8254 7.6854C39.9102 7.55248 40.0233 7.4846 40.1647 7.4846C40.2467 7.4846 40.3245 7.50723 40.3938 7.52844C40.4348 7.54117 40.4744 7.55248 40.5055 7.55672C40.5041 7.54965 40.5041 7.54258 40.5027 7.53692C40.4871 7.41248 40.4617 7.22582 40.6073 7.12259C41.296 6.63049 41.9281 6.45514 42.925 6.28686C43.1994 6.2402 43.403 6.29394 43.526 6.441C43.6674 6.60928 43.6462 6.83412 43.6377 6.88785C43.6293 7.08159 43.5289 8.91142 43.4935 9.14334C43.4893 9.17162 43.4864 9.1999 43.4822 9.22959C43.4596 9.4304 43.4285 9.70473 43.0509 9.88574C42.8162 9.99886 42.2194 10.3213 41.7612 10.8572C41.7231 10.9011 41.6722 10.9251 41.617 10.9251C41.5534 10.9251 41.494 10.8954 41.4388 10.8346C41.4049 10.7964 41.3809 10.7455 41.354 10.6861C41.3229 10.6168 41.2635 10.4867 41.2112 10.4867C41.2027 10.4867 41.1942 10.4881 41.1843 10.4924C41.1659 10.498 41.1461 10.5051 41.1235 10.5122C41.0542 10.5348 40.8788 10.59 40.8477 10.6508C40.8887 10.6861 40.999 10.7398 41.0683 10.7738C41.2621 10.8685 41.4629 10.9661 41.4148 11.1457C41.3413 11.4398 41.1702 11.5006 40.9382 11.5006Z" fill="black"/>
<path opacity="0.3" d="M49.7974 12.2193C49.7832 12.2193 49.7719 12.2179 49.7663 12.2179C49.7097 12.2151 49.5287 12.2123 49.2897 12.2066C48.4059 12.1868 47.5306 12.1656 47.3765 12.1415C47.3383 12.1359 47.2944 12.1331 47.2478 12.1316C47.0399 12.1203 46.7557 12.1062 46.569 11.7612C46.3399 11.3369 46.0048 10.7982 45.4434 10.3881C45.1507 10.176 45.1436 10.043 45.1606 9.65699C45.1648 9.57921 45.1705 9.43215 45.1775 9.24549C45.2171 8.28673 45.2624 7.24879 45.2878 7.07061C45.3232 6.82739 45.541 6.64355 45.7969 6.64355C45.8591 6.64355 45.9199 6.65487 45.9765 6.67749C46.3385 6.82032 46.668 6.97162 47.0159 7.15404C47.1332 7.21626 47.1658 7.32515 47.1856 7.3902C47.1884 7.40151 47.194 7.41565 47.1969 7.42696C47.2082 7.42838 47.2308 7.42979 47.2619 7.42979H47.3029C47.392 7.42979 47.4938 7.43545 47.5801 7.49908C48.8598 8.44228 49.6715 9.70224 50.1354 11.4614C50.2089 11.7399 50.1948 11.9492 50.0915 12.0822C50.0222 12.167 49.9162 12.2193 49.7974 12.2193Z" fill="black"/>
<path opacity="0.3" d="M44.8593 19.0099C44.6924 19.0099 44.5623 18.9604 44.4761 18.8614C44.3644 18.7341 44.3714 18.5757 44.3743 18.5376C44.3799 18.4343 44.4747 16.3995 44.51 16.1647C44.5157 16.1251 44.5171 16.0742 44.5185 16.0191C44.5242 15.7985 44.5341 15.4661 44.8876 15.2965C45.4405 15.0292 45.8902 14.6262 46.2253 14.0959C46.3837 13.8442 46.5265 13.7678 46.8334 13.7678C46.8801 13.7678 46.9295 13.7692 46.9861 13.7721C47.3184 13.7862 49.2388 13.8894 49.4891 13.9248C49.6545 13.9488 49.8115 14.0549 49.8991 14.2048C49.9741 14.3335 49.9896 14.4791 49.9416 14.605C49.8228 14.9147 49.6785 15.2597 49.4353 15.6867C49.3703 15.7999 49.26 15.8338 49.1709 15.8607C49.1214 15.8762 49.0747 15.889 49.0493 15.913C48.9489 16.0077 48.8527 16.1364 48.7594 16.2609L48.7481 16.2764C48.7368 16.3005 48.7339 16.4009 48.7325 16.4603C48.7297 16.6017 48.7269 16.7346 48.6519 16.8237C48.0778 17.5067 47.392 18.0511 46.6114 18.4414C46.5746 18.4598 46.5364 18.4697 46.4982 18.4697C46.4134 18.4697 46.3469 18.4273 46.289 18.3891C46.2225 18.3467 46.1589 18.3056 46.0585 18.3056C45.9651 18.3056 45.8746 18.3976 45.8251 18.4768C45.811 18.4994 45.7954 18.5305 45.7799 18.563C45.7205 18.6832 45.6484 18.8345 45.507 18.8755C45.3755 18.9137 45.251 18.9462 45.1294 18.9759C45.0318 18.9971 44.9413 19.0099 44.8593 19.0099Z" fill="black"/>
</g>
<path d="M3.13507 2.74505C3.44052 2.73232 9.31749 2.74081 9.58617 2.74081C9.90717 2.74081 10.1518 2.81293 10.1561 3.24705C10.1603 3.62037 10.1645 5.24234 10.1645 5.47991C10.1645 5.71748 10.0217 5.931 9.78414 5.931C9.54799 5.931 8.67408 5.92252 8.47187 5.92252C8.26965 5.92252 8.09996 5.95646 8.09996 6.26049C8.09996 6.56452 8.1042 20.9162 8.1042 21.2881C8.1042 21.6925 8.01936 21.9555 7.58099 21.9499C7.17514 21.9456 5.40328 21.9583 5.13319 21.9668C4.8631 21.9753 4.5223 21.8268 4.51664 21.3842C4.51523 21.2174 4.51664 18.6762 4.51947 15.7307C4.51947 15.5214 4.71462 15.5143 4.92673 15.5044C5.18127 15.4917 5.02148 15.2414 5.12329 15.1269C5.20107 15.0406 5.33682 15.1226 5.39055 15.0236C5.42874 14.9529 5.42308 14.564 5.18975 14.4198C4.99885 14.3024 4.53503 14.2374 4.52937 14.038C4.51664 13.6604 4.52372 13.2249 4.5223 12.8516C4.52089 12.6338 4.72593 12.474 4.72593 12.3467C4.72593 12.2364 4.64816 12.2223 4.64816 12.112C4.64816 12.0243 5.00875 12.0625 5.00875 11.9748C5.00875 11.89 4.8235 11.7797 4.70472 11.6722C4.63543 11.6114 4.52372 11.5195 4.5223 11.3512C4.49402 8.67859 4.52654 6.49381 4.52513 6.39058C4.52089 6.06958 4.45725 5.95504 4.15039 5.9508C3.87747 5.94797 3.17467 5.94656 2.96963 5.94656C2.70802 5.94656 2.57227 5.74859 2.57227 5.47849C2.57227 5.2084 2.57368 3.48179 2.58075 3.30927C2.59489 3.01514 2.72216 2.76202 3.13507 2.74505Z" fill="white"/>
<path d="M12.0313 3.36582C12.0285 3.57369 12.0087 10.7601 12.0059 15.4422C12.0059 15.5228 12.078 15.5553 12.1374 15.6006C12.1784 15.6317 12.2632 15.7391 12.2788 15.7886C12.2957 15.8424 12.3085 16.1931 12.2632 16.2015C12.1614 16.2171 12.1982 16.0601 12.1077 16.063C12.0497 16.0644 12.0059 16.1973 12.0059 16.2539C12.0059 18.0243 12.0101 19.2829 12.0186 19.396C12.0525 19.8004 12.2208 19.9065 12.4909 19.9065C12.761 19.9065 16.7784 19.898 17.0146 19.898C17.2847 19.898 17.4148 19.7085 17.419 19.4257C17.4233 19.1556 17.4275 18.1304 17.4275 17.8942C17.4275 17.5605 17.2507 17.2946 16.934 17.2904C16.6978 17.2876 15.9088 17.2862 15.6726 17.2862C15.4365 17.2862 15.3205 17.2041 15.312 16.9411C15.3092 16.869 15.3049 16.4928 15.3064 16.1096C15.3064 15.971 15.1183 16.0714 15.0829 15.8989C15.0716 15.841 15.0575 15.6585 15.0815 15.602C15.1084 15.5383 15.3106 15.5228 15.3163 15.38C15.3558 14.1582 15.3332 12.6409 15.3318 12.4542C15.329 12.129 15.3544 11.8278 15.6924 11.8278C16.0304 11.8278 16.7091 11.8278 16.9142 11.8207C17.1291 11.8136 17.4332 11.5859 17.4459 11.2706C17.4572 10.9977 17.4713 9.67975 17.4586 9.44076C17.4459 9.20603 17.3257 9.01654 17.0217 9.01654C16.7176 9.01654 15.9583 8.99674 15.7377 8.99674C15.5651 8.99674 15.3078 8.90765 15.3007 8.62342C15.2965 8.4212 15.295 6.01583 15.295 5.81361C15.295 5.6114 15.4223 5.34696 15.6585 5.34696C15.7461 5.34696 15.9158 5.34413 16.1053 5.34272C16.2029 5.34131 16.2227 5.22535 16.2595 5.13202C16.292 5.05 16.4249 5.0401 16.5083 5.05283C16.613 5.06697 16.6625 5.32999 16.7615 5.33282C16.8435 5.33424 16.9128 5.32858 16.958 5.32717C17.2239 5.31868 17.4431 5.08253 17.4473 4.81244C17.4501 4.60739 17.4431 3.45208 17.4388 3.2131C17.4346 2.9727 17.2946 2.76907 16.958 2.76907C16.6215 2.76907 12.9674 2.762 12.662 2.76483C12.2887 2.77048 12.0356 3.02361 12.0313 3.36582Z" fill="white"/>
<path d="M27.2088 19.2899C27.141 18.8515 25.0467 3.88472 24.9845 3.54675C24.8925 3.03202 24.6465 2.8793 24.2718 2.87505C24.0356 2.87222 21.9258 2.85384 21.6514 2.86233C21.3135 2.87364 21.1197 3.26817 21.0773 3.52978C21.0448 3.73341 19.1457 19.2856 19.1061 19.6278C19.0679 19.9743 19.2758 20.0323 19.5784 20.0323C19.881 20.0323 21.4351 20.0323 21.7731 19.9983C22.111 19.9644 22.2411 19.6886 22.2411 19.3026C22.2411 19.0664 22.2793 17.3653 22.2793 17.0287C22.2793 16.6908 22.5155 16.6243 22.7177 16.6243C22.9199 16.6243 23.2451 16.6201 23.5152 16.6201C23.9621 16.6201 24.0045 16.9453 24.0342 17.2324C24.0681 17.5519 24.037 19.2022 24.0441 19.4751C24.0568 19.9304 24.4033 19.9927 24.6748 20.0012C24.9661 20.0096 26.5866 20.0308 26.9232 20.0308C27.264 20.0294 27.2767 19.7296 27.2088 19.2899ZM23.4162 13.5684C23.2112 13.6222 23.0429 13.6278 22.8718 13.5995C22.7233 13.5755 22.5494 13.4737 22.572 13.1668C22.589 12.9293 22.9524 9.66553 22.9892 9.50009C23.0189 9.36999 23.1235 9.29787 23.2253 9.50009C23.2663 9.5821 23.3314 10.1548 23.3979 10.8223C23.4106 10.9495 23.4063 11.0089 23.4841 11.1277C23.5463 11.2239 23.938 11.4233 23.9465 11.501C23.9621 11.6481 23.47 11.5873 23.4869 11.7796C23.5449 12.4555 23.593 13.0381 23.6001 13.1357C23.6184 13.3733 23.6071 13.5189 23.4162 13.5684Z" fill="white"/>
<path d="M75.6641 2.83397C75.7561 2.82973 76.3189 2.82973 77.0613 2.8269C77.1942 2.8269 77.1419 3.03619 77.2479 3.04609C77.5548 3.07437 77.9705 3.20871 78.3099 3.12245C78.4386 3.08993 78.4669 2.8269 78.5828 2.8269C80.0196 2.8269 81.4718 2.82973 81.609 2.82973C81.93 2.82973 82.1746 2.90185 82.1789 3.33598C82.1831 3.7093 82.169 5.42459 82.169 5.66216C82.169 5.89832 82.0247 6.21507 81.7886 6.21507C81.5524 6.21507 80.8822 6.20659 80.6785 6.20659C80.4763 6.20659 80.308 6.24053 80.308 6.54456C80.308 6.6492 80.308 8.13541 80.3094 10.0628C80.3094 10.2 80.1397 10.3301 80.1397 10.4715C80.1397 10.5832 80.2529 10.7062 80.2529 10.8208C80.2529 10.9155 80.3094 11.0088 80.3094 11.105C80.3109 13.1498 80.2939 15.4675 80.3123 17.1248C80.3151 17.3397 80.086 17.2068 79.9983 17.2125C79.8753 17.2195 79.7353 17.3963 79.7353 17.5193C79.7353 17.6961 80.021 17.7173 80.1581 17.6834C80.3236 17.6438 80.3123 17.8955 80.3123 17.9662C80.3123 18.7553 80.3123 19.2714 80.3123 19.3435C80.3123 19.7479 80.2274 20.0096 79.7891 20.0053C79.3832 20.0011 77.6114 20.0138 77.3413 20.0223C77.0712 20.0308 76.729 19.8837 76.7247 19.4397C76.7205 19.0352 76.7374 6.94474 76.7332 6.67465C76.729 6.35365 76.6653 6.24053 76.357 6.23628C76.0841 6.23204 75.6839 6.23204 75.4789 6.23204C75.2173 6.23204 75.0815 5.93225 75.0815 5.66216C75.0815 5.39207 75.1013 3.57213 75.1084 3.39961C75.124 3.10407 75.2512 2.85094 75.6641 2.83397Z" fill="white"/>
<path d="M94.0248 3.36158C94.0206 3.66561 93.9781 18.9873 94.0121 19.3917C94.046 19.7976 94.2525 19.9065 94.5226 19.9065C94.7927 19.9065 98.8101 19.898 99.0463 19.898C99.3164 19.898 99.4465 19.7085 99.4507 19.4257C99.4549 19.1556 99.4592 18.1304 99.4592 17.8942C99.4592 17.5605 99.2824 17.2946 98.9657 17.2904C98.7295 17.2876 97.9404 17.2862 97.7043 17.2862C97.4681 17.2862 97.3522 17.2041 97.3437 16.9425C97.3338 16.6371 97.3649 12.7596 97.3635 12.4542C97.3607 12.129 97.3875 11.8278 97.7241 11.8278C98.0606 11.8278 98.7408 11.8278 98.9459 11.8207C99.1608 11.8136 99.4648 11.5859 99.4776 11.2706C99.4889 10.9977 99.503 9.67975 99.4903 9.44076C99.4776 9.20603 99.3574 9.01654 99.0533 9.01654C98.7493 9.01654 97.9899 8.99674 97.7679 8.99674C97.5954 8.99674 97.338 8.90765 97.331 8.62342C97.3267 8.4212 97.3253 6.01583 97.3253 5.81361C97.3253 5.6114 97.4526 5.34696 97.6887 5.34696C97.9249 5.34696 98.7521 5.33282 98.9883 5.32575C99.2541 5.31727 99.4733 5.08111 99.4776 4.81102C99.4804 4.60598 99.4733 3.45066 99.4691 3.21168C99.4648 2.97129 99.3248 2.76907 98.9883 2.76907C98.6517 2.76907 94.9977 2.762 94.6923 2.76483C94.3204 2.77048 94.0291 3.01936 94.0248 3.36158Z" fill="white"/>
<path d="M51.3513 13.6194C51.3485 13.2942 51.4079 12.9604 51.7445 12.9604C52.0824 12.9604 52.4218 12.9604 52.6269 12.9548C52.8418 12.9477 53.1133 12.754 53.126 12.4372C53.1373 12.1657 53.1515 10.5777 53.1388 10.3401C53.126 10.1054 53.0058 9.91588 52.7018 9.91588C52.3978 9.91588 52.0103 9.93003 51.7897 9.93003C51.6172 9.93003 51.3598 9.87488 51.3528 9.58923C51.3485 9.38701 51.3457 6.37358 51.3457 6.17136C51.3457 5.96915 51.473 5.70471 51.7091 5.70471C51.9453 5.70471 52.4685 5.69199 52.7046 5.6835C52.9705 5.67502 53.1897 5.43886 53.1939 5.16877C53.1967 4.96373 53.1897 3.40398 53.1854 3.16359C53.1812 2.92319 53.0412 2.72097 52.7046 2.72097C52.3667 2.72097 48.6137 2.7139 48.3068 2.71673C47.9363 2.72097 47.6775 2.96986 47.6733 3.31207C47.6733 3.35449 47.6634 3.72074 47.6705 4.32456C47.6719 4.50132 47.8741 4.36981 47.8698 4.57909C47.8656 4.77565 47.669 4.64414 47.669 4.85484C47.6832 9.18338 47.6323 21.1367 47.6606 21.4704C47.6945 21.8749 47.901 21.9852 48.171 21.9852C48.4411 21.9852 50.7093 21.9894 50.9455 21.9894C51.2156 21.9894 51.3457 21.7985 51.3513 21.5171C51.3513 21.5171 51.3429 19.8527 51.3513 18.0526C51.3528 17.8645 51.1194 17.9437 51.0516 17.9437C50.8903 17.9409 50.8706 17.7881 50.9285 17.651C51.0629 17.3342 51.3075 17.3554 51.3146 17.1659C51.3231 16.9114 51.2029 17.1334 51.1972 16.9001C51.1915 16.6809 51.3612 16.7064 51.3528 16.514C51.3033 15.4521 51.3556 14.1751 51.3513 13.6194Z" fill="white"/>
<path d="M29.3059 3.47465C29.3017 3.23001 29.3554 2.93871 29.6609 2.93447C29.8631 2.93164 33.0391 2.91326 33.2428 2.92174C33.4619 2.93023 33.6981 3.11123 33.749 3.3389C33.7999 3.56657 34.4645 7.35775 34.5154 7.56138C34.5664 7.7636 34.736 7.80744 34.787 7.56845C34.8449 7.29129 35.4728 3.49162 35.4968 3.34031C35.535 3.09568 35.716 2.9175 35.9607 2.91043C36.1388 2.90336 39.2682 2.93588 39.4464 2.93588C39.7829 2.93588 40.1308 3.10699 40.1435 3.41668C40.1534 3.67121 40.3274 19.0509 40.3274 19.3549C40.3274 19.659 40.2072 19.8357 40.0304 19.8612C39.8536 19.8866 37.5246 19.8739 37.3465 19.8739C37.1697 19.8739 37.0099 19.7664 37.0099 19.5133C37.0099 19.2602 37.0099 12.9378 37.0099 12.7341C37.0099 12.5065 36.877 12.3919 36.7879 12.7087C36.7115 12.9816 35.6849 18.9505 35.6241 19.2163C35.5548 19.5204 35.5223 19.7792 35.2946 19.7792C35.0669 19.7792 34.3839 19.7735 34.1803 19.7735C33.9781 19.7735 33.8423 19.6448 33.7815 19.4129C33.7179 19.1725 32.4452 13.0269 32.4014 12.8048C32.3604 12.5998 32.1794 12.5828 32.1539 12.8119C32.1285 13.0396 32.1157 19.1414 32.1157 19.3945C32.1157 19.6491 32.0281 19.7495 31.799 19.7495C31.5713 19.7495 29.8362 19.8187 29.5831 19.7933C29.33 19.7678 29.3116 19.6038 29.3116 19.4016C29.3116 19.2588 29.2649 11.3285 29.3059 6.71576C29.3073 6.51071 29.6764 6.62525 29.6764 6.42869C29.6764 6.31415 29.4403 6.30567 29.4473 6.16567C29.4558 5.98467 29.6934 6.078 29.6934 5.96063C29.6934 5.86306 29.3059 5.57741 29.3059 5.48549C29.3073 4.26372 29.3059 3.48031 29.3059 3.47465Z" fill="white"/>
<path d="M63.4236 4.71487C63.4321 3.70238 62.4196 2.54565 61.0522 2.55414C60.6138 2.55697 58.3428 2.54565 57.5325 2.54565C56.4861 2.54565 55.3718 3.30502 55.3293 4.57912C55.3053 5.30738 55.2685 14.3053 55.2572 17.1292C55.2558 17.371 55.7918 17.6001 55.7918 17.7429C55.7918 17.8716 55.2544 17.7514 55.2544 17.9565C55.2572 19.6449 56.233 19.915 56.9768 19.9319C57.5523 19.9447 61.2289 19.9532 61.8045 19.9404C62.5723 19.9235 63.4165 19.1471 63.4081 17.8476C63.4052 17.4856 63.4137 12.6875 63.4151 8.97695C63.4151 8.80019 63.1677 8.86383 63.1677 8.77191C63.1677 8.65878 63.2214 8.48061 63.2624 8.37031C63.285 8.3095 63.4165 8.23314 63.4165 8.16951C63.4165 8.03941 63.4165 7.91214 63.4165 7.7877C63.418 7.62367 63.2864 7.60528 63.2864 7.50912C63.2864 7.396 63.4095 7.41862 63.418 7.15984C63.4208 7.05803 63.4264 6.99439 63.2582 6.99864C63.1224 7.00288 63.1804 6.77804 63.1549 6.70309C63.1224 6.60552 62.7152 6.36088 62.7152 6.26331C62.7152 6.20533 62.7604 6.14735 62.7604 6.09079C62.7604 6.04978 62.7194 5.9918 62.7194 5.90696C62.7194 5.86736 63.2582 5.87019 63.2935 5.85746C63.3628 5.83342 63.3557 5.78252 63.3557 5.73444C63.3557 5.62838 63.1959 5.72312 63.2002 5.59586C63.203 5.50253 63.4222 5.46434 63.4222 5.33708C63.4208 5.04012 63.4222 4.79689 63.4236 4.71487ZM59.8276 16.7078C59.7936 16.9779 59.6593 17.0627 59.4896 17.0627C59.3199 17.0627 59.1092 17.0712 58.9494 17.0627C58.8094 17.0557 58.6369 17.0373 58.603 16.7333C58.5931 16.647 58.5888 15.7646 58.586 14.5428C58.586 14.4368 58.586 14.3279 58.586 14.2176C58.5846 14.0762 58.5846 13.9305 58.5846 13.7835C58.5818 10.6739 58.5931 6.2025 58.5931 6.02433C58.5931 5.76272 58.6779 5.60151 59.006 5.60151C59.1417 5.60151 59.3821 5.61 59.5207 5.61C59.6819 5.61 59.8912 5.7104 59.8912 5.98049C59.8955 6.252 59.8615 16.4377 59.8276 16.7078Z" fill="white"/>
<path d="M70.3358 19.5603C70.3273 19.556 70.3188 19.549 70.3061 19.5433C70.2877 19.5376 70.2834 19.5376 70.2665 19.5433C70.2495 19.549 70.0883 19.532 70.0854 19.5928C70.1095 19.7696 70.2113 19.9463 70.4955 19.9562C70.5153 19.9548 70.6002 19.877 70.5917 19.8601C70.5083 19.7795 70.4305 19.8982 70.3471 19.7738C70.3131 19.7257 70.3555 19.5702 70.3358 19.5603Z" fill="white"/>
<path d="M72.3523 11.2906C72.5545 11.1392 73.5585 10.6401 73.6009 9.34052C73.608 9.10719 73.6151 7.61108 73.6165 6.33981C73.6165 6.24931 73.3492 6.16022 73.3492 6.07113C73.3492 6.04851 73.3492 6.02588 73.3492 6.00325C73.3492 5.93255 73.6165 5.86326 73.6165 5.79538C73.6151 5.2255 73.6136 4.76168 73.6094 4.57361C73.5924 3.88211 72.9589 2.83427 71.7188 2.85124C71.3893 2.85548 66.727 2.82861 66.3466 2.82861C65.8587 2.82861 65.7074 3.34052 65.7074 3.61909C65.7074 3.77181 65.6509 19.02 65.6509 19.3735C65.6509 19.7285 65.7711 19.8614 66.1006 19.8798C66.43 19.8996 68.1326 19.8798 68.4621 19.8798C68.7916 19.8798 68.8665 19.5192 68.8665 19.266C68.8665 19.0129 68.892 13.8981 68.892 13.645C68.892 13.3919 69.0815 13.3283 69.2596 13.3283C69.4378 13.3283 69.5637 13.3396 69.7475 13.3353C70.0134 13.3283 70.1208 13.4485 70.1208 13.8543C70.1208 14.1838 70.0954 18.9238 70.0954 19.2788C70.0954 19.2986 70.0925 19.3396 70.1109 19.341C70.1449 19.3424 70.1604 19.2759 70.1717 19.2392C70.2241 19.0638 70.4616 19.0073 70.4927 19.1996C70.5069 19.2901 70.6412 19.3961 70.7006 19.4654C70.7727 19.5503 70.9212 19.6323 70.9707 19.7327C70.9905 19.7709 70.9764 19.9024 71.0188 19.8996C71.6933 19.9095 72.8826 19.9307 73.164 19.925C73.5189 19.9179 73.5811 19.7341 73.5811 19.2533C73.5811 18.7725 73.5811 13.6464 73.5755 12.9875C73.5684 12.3356 72.5884 11.8816 72.3353 11.7798C72.0822 11.678 72.1501 11.4419 72.3523 11.2906ZM70.3443 9.05911C70.2933 9.43809 70.1138 9.95565 69.855 9.95989C69.5905 9.96272 69.3996 9.95989 69.1706 9.95706C68.9401 9.95423 68.9514 9.69404 68.9514 9.46637C68.9514 9.2387 68.9485 5.99901 68.9485 5.99901C68.9485 5.69498 69.0037 5.49701 69.2144 5.49842C69.4166 5.49984 69.3388 5.49701 69.5439 5.50549C69.7715 5.51398 70.3584 5.9778 70.3598 6.30304C70.3626 6.60707 70.3952 8.67872 70.3443 9.05911Z" fill="white"/>
<path d="M90.4796 11.3242C90.6818 11.1715 91.6858 10.6737 91.7282 9.37416C91.741 8.99377 91.7523 5.23935 91.7367 4.60583C91.7212 3.91434 91.0877 2.86791 89.8461 2.88488C89.5166 2.88912 84.8543 2.86084 84.474 2.86084C83.9875 2.86084 83.8348 3.37416 83.8348 3.65273C83.8348 3.69091 83.8305 4.66805 83.8263 6.12033C83.8249 6.23063 84.0285 6.36072 84.0328 6.53607C84.0356 6.60536 83.8192 6.52476 83.8192 6.65061C83.8192 6.70152 83.8235 6.77505 83.8221 6.82596C83.8221 6.94616 84.1077 7.06211 84.1077 7.18655C84.1077 7.31241 83.8178 7.23039 83.8192 7.39443C83.8588 11.9761 83.7754 19.1625 83.7754 19.4057C83.7754 19.7607 83.8956 19.8936 84.2251 19.912C84.5546 19.9304 86.2571 19.912 86.5866 19.912C86.9161 19.912 86.9924 19.5514 86.9924 19.2983C86.9924 19.0451 87.0179 13.9304 87.0179 13.6772C87.0179 13.4241 87.2074 13.3605 87.3856 13.3605C87.5623 13.3605 87.6896 13.3704 87.8734 13.3676C88.1393 13.3605 88.2467 13.4807 88.2467 13.8865C88.2467 14.216 88.2213 18.9561 88.2213 19.311C88.2213 19.6645 88.3613 19.9247 88.7403 19.9247C89.1207 19.9247 90.9364 19.9629 91.2913 19.9572C91.6462 19.9502 91.7099 19.7663 91.7099 19.287C91.7099 19.0579 91.7099 17.7852 91.7099 16.439C91.7084 16.364 91.707 16.3697 91.6491 16.3541C91.6222 16.3471 91.3578 16.3612 91.3634 16.2311C91.3691 16.0925 91.4384 16.0826 91.4412 16.0105C91.4468 15.9115 91.3818 15.896 91.3818 15.7574C91.3832 15.5028 91.6491 15.5693 91.6406 15.3586C91.6349 15.2073 91.7085 15.1804 91.7085 15.0334C91.707 14.0675 91.7056 13.2544 91.7042 13.0183C91.6985 12.3664 90.7172 11.9125 90.464 11.8106C90.2109 11.7117 90.2774 11.4755 90.4796 11.3242ZM88.473 9.09275C88.4221 9.47314 88.2425 9.9907 87.9837 9.99212C87.7193 9.99495 87.5298 9.99212 87.3007 9.98929C87.0702 9.98646 87.0815 9.72627 87.0815 9.4986C87.0815 9.27093 87.0787 6.03124 87.0787 6.03124C87.0787 5.72721 87.1339 5.52924 87.3446 5.53065C87.5468 5.53206 87.4704 5.53065 87.674 5.53772C87.9017 5.5462 88.4886 6.01144 88.49 6.33527C88.49 6.64071 88.5239 8.71236 88.473 9.09275Z" fill="white"/>
<path d="M101.326 4.17448C101.343 3.45753 101.806 2.69816 102.625 2.68119C102.744 2.67837 103.088 2.67695 103.546 2.67554C103.639 2.67554 103.714 2.83109 103.913 2.82826C104.104 2.82685 103.991 2.67695 104.059 2.67695C104.237 2.67695 104.363 2.67978 104.555 2.67978C104.639 2.67978 104.67 2.79715 104.842 2.8127C105.038 2.83109 105.014 2.67695 105.087 2.67695C106.299 2.67695 107.529 2.67554 107.757 2.68261C108.397 2.69958 109.124 3.21431 109.124 3.84641C109.124 4.47992 109.15 7.54285 109.15 7.92324C109.15 8.30222 109.073 8.53837 108.744 8.54827C108.44 8.55675 106.804 8.55675 106.575 8.55675C106.347 8.55675 106.085 8.59493 106.06 8.26545C106.035 7.93597 106.06 6.1132 106.054 5.93644C106.042 5.59423 105.807 5.49241 105.63 5.49241C105.452 5.49241 105.38 5.49241 105.2 5.49241C104.94 5.49241 104.758 5.70735 104.758 5.96048C104.758 6.2136 104.745 7.59376 104.745 7.79597C104.745 7.99819 104.745 8.1 104.923 8.30222C105.1 8.50443 108.303 10.7939 108.594 11.0116C108.898 11.2393 109.177 11.5433 109.177 11.8474C109.177 12.1514 109.143 17.696 109.151 18.075C109.171 18.898 108.487 19.7521 107.911 19.7705C107.558 19.7818 103.075 19.7649 102.798 19.7705C102.253 19.7832 101.355 19.2077 101.355 18.4738C101.355 18.0934 101.343 13.9671 101.343 13.663C101.343 13.359 101.406 13.0875 101.71 13.0875C102.014 13.0875 103.957 13.0875 104.285 13.0875C104.615 13.0875 104.691 13.2332 104.717 13.4863C104.742 13.7394 104.698 16.3343 104.698 16.5874C104.698 16.8405 104.78 17.112 105.008 17.112C105.236 17.112 105.381 17.1191 105.578 17.112C105.757 17.1064 105.875 16.8971 105.9 16.644C105.926 16.3908 105.938 13.6432 105.938 13.3406C105.938 13.0366 105.887 12.9602 105.711 12.8344C105.533 12.7071 101.876 9.98216 101.659 9.82095C101.488 9.69369 101.337 9.61167 101.337 9.25814C101.337 9.14643 101.334 8.61897 101.334 7.94304C101.334 7.79456 101.437 7.81577 101.429 7.70405C101.42 7.598 101.334 7.62628 101.334 7.54002C101.333 7.37599 101.806 7.55982 101.812 7.36184C101.818 7.19215 101.71 7.14549 101.71 7.08044C101.71 6.98852 101.764 6.91923 101.757 6.8259C101.748 6.71702 101.642 6.63783 101.593 6.58268C101.549 6.5346 101.331 6.49642 101.331 6.43279C101.324 5.30717 101.323 4.25791 101.326 4.17448Z" fill="white"/>
<path d="M111.554 4.0744C111.571 3.35745 112.034 2.59809 112.853 2.5797C113.01 2.57687 113.563 2.57405 114.253 2.57263C114.339 2.57263 114.297 2.68293 114.532 2.68293C114.652 2.68293 114.608 2.57263 114.713 2.57122C114.779 2.5698 114.847 2.56556 114.915 2.57122C115.02 2.57829 115.063 2.68293 115.195 2.68293C115.283 2.68293 115.25 2.57122 115.336 2.57122C116.536 2.57122 117.757 2.57263 117.984 2.5797C118.626 2.59667 119.351 3.1114 119.351 3.7435C119.351 4.37702 119.376 7.43994 119.376 7.82033C119.376 8.20073 119.3 8.43547 118.972 8.44536C118.667 8.45385 117.03 8.45385 116.803 8.45385C116.575 8.45385 116.314 8.49203 116.288 8.16255C116.263 7.83306 116.288 6.01029 116.282 5.83353C116.27 5.49132 116.035 5.39092 115.858 5.39092C115.681 5.39092 115.606 5.39092 115.428 5.39092C115.168 5.39092 114.984 5.60586 114.984 5.85899C114.984 6.11211 114.972 7.49226 114.972 7.69448C114.972 7.8967 114.972 7.99851 115.148 8.20073C115.325 8.40436 118.528 10.6924 118.819 10.9101C119.123 11.1378 119.402 11.4418 119.402 11.7459C119.402 11.9198 119.391 13.8104 119.384 15.4678C119.382 15.6601 119.054 15.7265 118.982 15.8948C118.915 16.0475 118.8 16.3784 118.866 16.5453C118.932 16.7093 119.094 16.6443 119.091 16.797C119.085 17.0431 118.869 16.8932 118.86 17.1534C118.85 17.5196 119.386 17.3768 119.375 17.6016C119.364 17.8279 119.375 17.9212 119.376 17.9735C119.395 18.7965 118.712 19.6506 118.136 19.669C117.783 19.6803 113.3 19.6634 113.022 19.669C112.477 19.6818 111.579 19.1062 111.579 18.3709C111.579 17.9905 111.566 13.8642 111.566 13.5601C111.566 13.2561 111.63 12.9846 111.934 12.9846C112.238 12.9846 114.181 12.9846 114.511 12.9846C114.839 12.9846 114.915 13.1303 114.94 13.3834C114.966 13.6365 114.921 16.2314 114.921 16.4859C114.921 16.739 115.003 17.0119 115.23 17.0119C115.458 17.0119 115.604 17.0176 115.8 17.0119C115.98 17.0063 116.097 16.797 116.123 16.5425C116.148 16.2893 116.161 13.5432 116.161 13.2391C116.161 12.9351 116.11 12.8588 115.933 12.7329C115.756 12.607 112.098 9.88067 111.882 9.71946C111.711 9.59361 111.559 9.51018 111.559 9.15665C111.561 8.80172 111.549 4.25116 111.554 4.0744Z" fill="white"/>
<path d="M124.648 4.55511C124.636 3.64302 125.568 2.5669 126.492 2.61356C126.869 2.63194 128.492 2.62487 129.777 2.6178C129.838 2.6178 129.926 2.70548 129.97 2.74507C130.059 2.82002 130.217 2.83275 130.309 2.79881C130.378 2.77194 130.35 2.61356 130.432 2.61498C130.911 2.61639 131.273 2.6079 131.391 2.60649C132.627 2.59801 134.045 3.78019 134.049 5.05005C134.052 5.72457 134.028 9.87211 134.02 10.3458C134.011 10.8549 133.916 11.3993 133.656 11.8603C133.559 12.0357 133.001 13.0425 132.306 14.1978C132.12 14.5047 132.017 14.219 131.928 14.2006C131.879 14.1907 131.726 14.2501 131.726 14.2912C131.726 14.3788 132.037 14.5966 132 14.6532C131.87 14.8554 131.661 14.7988 131.57 14.8412C131.452 14.8964 131.398 15.0194 131.384 15.175C131.372 15.2966 131.272 15.5285 131.278 15.6246C131.29 15.858 131.395 15.7745 131.24 16.0376C130.521 17.2523 129.926 18.3043 129.849 18.4387C129.67 18.7554 129.605 19.0467 129.917 19.0467C130.223 19.0467 132.98 19.0213 133.25 19.0213C133.52 19.0213 133.816 19.0722 133.824 19.3677C133.833 19.6718 133.816 21.4521 133.816 21.7222C133.816 21.9923 133.824 22.2454 133.419 22.2709C133.047 22.2949 125.545 22.2963 125.309 22.2963C125.073 22.2963 124.702 22.1606 124.692 21.7477C124.687 21.4436 124.667 19.5615 124.667 19.3253C124.667 18.8785 124.861 18.515 125.03 18.245C125.198 17.9749 129.499 10.5014 129.596 10.3119C129.782 9.94847 129.838 9.51858 129.838 9.24708C129.838 8.97698 129.834 6.58434 129.834 6.34818C129.834 6.11203 129.837 5.88295 129.503 5.89143C129.267 5.89709 129.229 5.89426 129.055 5.89143C128.819 5.88719 128.65 5.92537 128.65 6.19546C128.65 6.46555 128.656 8.75921 128.65 9.03072C128.642 9.38142 128.565 9.69676 128.212 9.69676C127.976 9.69676 125.494 9.70949 125.224 9.70949C124.954 9.70949 124.634 9.5709 124.634 9.23294C124.634 9.01234 124.64 7.07927 124.643 5.76982C124.643 5.70901 124.756 5.7175 124.827 5.70901C124.879 5.70336 125.03 5.67083 125.03 5.52801C125.03 5.41205 124.769 5.4064 124.767 5.21549C124.767 5.12782 124.919 5.16459 124.917 5.03873C124.916 4.96803 124.896 4.80965 124.887 4.7545C124.87 4.63713 124.695 4.58198 124.653 4.56925C124.648 4.56501 124.648 4.55511 124.648 4.55511Z" fill="white"/>
<path d="M37.9867 13.0959C38.172 13.1044 40.146 13.2005 40.3652 13.2345C40.5844 13.2684 40.8333 13.2429 41.0072 13.6021C41.2335 14.0716 41.8345 14.8847 42.4765 15.2891C42.7268 15.4475 42.7466 15.5168 42.7296 15.8887C42.7126 16.2606 42.5684 18.0749 42.5359 18.3111C42.5019 18.5472 42.2601 18.7862 42.0466 18.7155C40.4883 18.2008 38.1055 16.7329 37.5908 13.6856C37.4791 13.0294 37.9867 13.0959 37.9867 13.0959Z" fill="black"/>
<path d="M43.5059 6.87536C43.4974 7.06061 43.397 8.90459 43.3631 9.12377C43.3291 9.34296 43.3546 9.59184 42.9954 9.76436C42.6051 9.95243 42.072 10.289 41.6619 10.7698C41.6393 10.7966 41.5983 10.808 41.5417 10.7443C41.4668 10.6609 41.3961 10.2763 41.143 10.3639C41.0115 10.4106 40.7131 10.4785 40.7131 10.668C40.7131 10.8292 41.3268 10.9649 41.2886 11.112C41.2137 11.3976 41.0666 11.3736 40.6961 11.3566C40.3256 11.3397 38.3162 11.2124 38.08 11.1799C37.8439 11.1459 37.7986 10.9211 37.8693 10.7076C38.1196 9.95102 38.5948 9.06014 39.3782 8.264C39.4333 8.20744 39.7925 8.36865 39.9042 8.264C40.0173 8.15653 39.866 7.87796 39.9424 7.75776C40.1446 7.43817 40.4458 7.79311 40.6325 7.66301C40.6919 7.62059 40.5561 7.32787 40.689 7.23171C41.3522 6.75799 41.9646 6.58689 42.9516 6.42002C43.6049 6.30973 43.5059 6.87536 43.5059 6.87536Z" fill="black"/>
<path d="M49.7761 12.0835C49.5908 12.075 47.6153 12.0411 47.3961 12.0071C47.177 11.9732 46.8758 12.0453 46.6863 11.6946C46.4586 11.2732 46.1121 10.7076 45.5211 10.2777C45.2821 10.1038 45.2764 10.0331 45.2934 9.66115C45.3104 9.29065 45.3867 7.32365 45.4207 7.0875C45.4546 6.85134 45.7176 6.71842 45.9269 6.80044C46.2677 6.93477 46.5986 7.08467 46.9521 7.27133C47.0723 7.33496 47.0384 7.4891 47.1161 7.53718C47.2038 7.59233 47.3891 7.52445 47.498 7.60505C48.5218 8.36018 49.4749 9.48863 50.0023 11.4938C50.1734 12.1358 49.7761 12.0835 49.7761 12.0835Z" fill="black"/>
<path d="M44.51 18.5471C44.5185 18.3605 44.6118 16.4034 44.6444 16.1842C44.6783 15.965 44.5892 15.5889 44.9484 15.4163C45.4179 15.1901 45.9354 14.8083 46.3413 14.1677C46.4983 13.9174 46.6114 13.8891 46.9833 13.9061C47.3552 13.9231 49.2359 14.0249 49.4735 14.0574C49.7097 14.0913 49.9006 14.3445 49.82 14.5552C49.6899 14.8945 49.547 15.224 49.3222 15.6186C49.2529 15.7402 49.0677 15.7133 48.9616 15.8137C48.8485 15.9212 48.7424 16.064 48.6448 16.1941C48.5685 16.2959 48.6392 16.6339 48.5543 16.7357C48.0509 17.3338 47.399 17.8981 46.5562 18.3195C46.4176 18.3888 46.3356 18.1682 46.0627 18.1682C45.9043 18.1682 45.7785 18.3011 45.7148 18.4015C45.654 18.5005 45.5876 18.7083 45.473 18.7423C45.3528 18.7776 45.2284 18.8102 45.1025 18.8413C44.4535 18.9954 44.51 18.5471 44.51 18.5471Z" fill="black"/>
</g>
<defs>
<linearGradient id="paint0_linear" x1="70.7051" y1="0.000824313" x2="70.7051" y2="30.0007" gradientUnits="userSpaceOnUse">
<stop offset="0.0806" stop-color="#BB8B2F"/>
<stop offset="0.5" stop-color="#925E22"/>
<stop offset="0.9462" stop-color="#612A14"/>
</linearGradient>
<clipPath id="clip0">
<rect width="141.409" height="30" fill="white"/>
</clipPath>
</defs>
</svg>
