<svg width="97" height="21" viewBox="0 0 97 21" fill="none" xmlns="http://www.w3.org/2000/svg">
<path fill-rule="evenodd" clip-rule="evenodd" d="M8.55471 20.5522C13.9125 21.8881 19.3384 18.6278 20.674 13.2707C22.0096 7.91324 18.7496 2.48642 13.3922 1.15081C8.03597 -0.184803 2.61009 3.07579 1.2751 8.43355C-0.0611345 13.7904 3.19914 19.2166 8.55471 20.5522ZM13.1823 6.90372C14.5676 7.38091 15.5807 8.09621 15.3816 9.42682C15.2376 10.4009 14.6976 10.8724 13.9807 11.0377C14.9651 11.5502 15.466 12.3362 14.9888 13.6987C14.3966 15.3908 12.9898 15.5336 11.1188 15.1796L10.6648 16.9992L9.56761 16.7258L10.0157 14.9305C9.73136 14.8599 9.44074 14.7849 9.14137 14.7036L8.69169 16.5074L7.59576 16.2339L8.04982 14.4108C7.94739 14.3846 7.84431 14.3577 7.7405 14.3306C7.58461 14.29 7.42708 14.2489 7.26764 14.209L5.83984 13.853L6.38452 12.5971C6.38452 12.5971 7.19295 12.8121 7.18202 12.7962C7.49264 12.873 7.63045 12.6705 7.68482 12.5355L8.40232 9.65901C8.42926 9.66548 8.45565 9.6721 8.4811 9.67848C8.49373 9.68165 8.50613 9.68475 8.51825 9.68776C8.4745 9.67026 8.43481 9.65901 8.40419 9.6512L8.91606 7.59778C8.9295 7.36466 8.84918 7.0706 8.40481 6.95966C8.422 6.9481 7.60795 6.76154 7.60795 6.76154L7.89982 5.58967L9.41293 5.96748L9.41168 5.97311C9.63918 6.02967 9.87355 6.08342 10.1123 6.13779L10.562 4.33594L11.6585 4.60937L11.2179 6.37592C11.5123 6.4431 11.8085 6.51092 12.097 6.58279L12.5345 4.82781L13.6316 5.10124L13.1823 6.90372ZM9.71183 13.4389C10.6071 13.6753 12.5637 14.1921 12.8748 12.9421C13.1935 11.664 11.2959 11.2382 10.37 11.0304C10.2665 11.0072 10.1752 10.9867 10.1004 10.9681L9.49793 13.3833C9.55932 13.3986 9.63128 13.4176 9.71183 13.4389ZM10.556 9.90956C11.3024 10.1088 12.9305 10.5433 13.2141 9.40714C13.5037 8.24506 11.9213 7.89475 11.1485 7.72367C11.0616 7.70443 10.9849 7.68745 10.9223 7.67184L10.376 9.86244C10.4276 9.8753 10.4882 9.89146 10.556 9.90956Z" fill="white"/>
<path d="M30.2795 6.90388C31.0905 6.90388 31.7911 7.04919 32.3798 7.3345C32.9714 7.62263 33.4595 8.01075 33.8511 8.49887C34.2373 8.98949 34.5248 9.56292 34.7104 10.2201C34.8948 10.8792 34.9873 11.5876 34.9873 12.346C34.9873 13.511 34.7739 14.6116 34.3429 15.6491C33.912 16.6882 33.3273 17.5894 32.5836 18.3581C31.8405 19.1259 30.963 19.7313 29.9511 20.1784C28.9408 20.6259 27.8424 20.8497 26.663 20.8497C26.5105 20.8497 26.2424 20.8453 25.8637 20.8375C25.4849 20.8297 25.0496 20.7906 24.5621 20.7247C24.0715 20.6562 23.5527 20.555 23.0049 20.4194C22.4574 20.2862 21.9374 20.0997 21.4478 19.8628L25.8265 1.46425L29.7483 0.856445L28.1805 7.38544C28.5161 7.23419 28.8542 7.11701 29.1917 7.03169C29.5295 6.94763 29.892 6.90388 30.2795 6.90388ZM26.9899 17.7385C27.5805 17.7385 28.1371 17.5931 28.6599 17.3078C29.1842 17.0222 29.6367 16.6366 30.0158 16.1563C30.3949 15.6738 30.6948 15.1304 30.9136 14.5232C31.1323 13.916 31.243 13.2826 31.243 12.6235C31.243 11.8138 31.1077 11.1823 30.838 10.7257C30.5683 10.271 30.0692 10.0423 29.3445 10.0423C29.107 10.0423 28.8011 10.0876 28.4217 10.1685C28.0411 10.2545 27.7005 10.4329 27.3952 10.7013L25.7258 17.635C25.8265 17.6528 25.9155 17.6697 25.9915 17.6856C26.0658 17.7028 26.148 17.715 26.2299 17.7235C26.3165 17.7331 26.4155 17.7381 26.5352 17.7381C26.6549 17.7381 26.8046 17.7385 26.9899 17.7385Z" fill="white"/>
<path d="M39.0555 20.4957H35.3096L38.473 7.18431H42.2445L39.0555 20.4957ZM40.8783 5.56245C40.3555 5.56245 39.8814 5.40683 39.4608 5.09496C39.0367 4.78496 38.8267 4.30778 38.8267 3.66466C38.8267 3.31092 38.8986 2.97904 39.0411 2.66592C39.1858 2.35342 39.3748 2.08437 39.6117 1.85562C39.8483 1.62874 40.1223 1.4475 40.4336 1.31094C40.7467 1.17656 41.0798 1.10938 41.4348 1.10938C41.9573 1.10938 42.4289 1.265 42.8511 1.57687C43.2717 1.89031 43.4832 2.36749 43.4832 3.00717C43.4832 3.36216 43.4117 3.69529 43.2679 4.00778C43.1251 4.32028 42.9361 4.58934 42.6992 4.81809C42.4645 5.04527 42.1879 5.22589 41.8773 5.36121C41.5639 5.49777 41.232 5.56245 40.8783 5.56245Z" fill="white"/>
<path d="M45.5257 3.86855L49.449 3.26074L48.4856 7.18445H52.6875L51.9287 10.2713H47.7522L46.6397 14.9275C46.5372 15.3156 46.4791 15.6781 46.4628 16.015C46.4444 16.3534 46.4872 16.644 46.5885 16.8887C46.6891 17.134 46.87 17.3231 47.1325 17.4568C47.3938 17.5928 47.7678 17.6612 48.2584 17.6612C48.6625 17.6612 49.0562 17.6228 49.4369 17.5465C49.8153 17.4715 50.1987 17.3672 50.5868 17.2306L50.8662 20.1168C50.36 20.3024 49.8119 20.4621 49.2212 20.5965C48.6297 20.7328 47.9294 20.7984 47.12 20.7984C45.9563 20.7984 45.0541 20.6256 44.4113 20.2815C43.7694 19.9349 43.3157 19.4615 43.0441 18.8621C42.7763 18.265 42.6566 17.5765 42.6901 16.8009C42.7247 16.0234 42.8419 15.2062 43.0441 14.3456L45.5257 3.86855Z" fill="white"/>
<path d="M52.5244 15.1815C52.5244 14.0349 52.71 12.9537 53.081 11.9415C53.4513 10.9284 53.9847 10.0425 54.6769 9.28216C55.3666 8.52561 56.2069 7.92624 57.1959 7.48624C58.1803 7.04875 59.2825 6.82812 60.4971 6.82812C61.2574 6.82812 61.9365 6.9 62.534 7.04406C63.134 7.18937 63.6768 7.37718 64.1677 7.61281L62.8759 10.5503C62.5384 10.4134 62.1881 10.2928 61.8259 10.1834C61.4634 10.0718 61.0209 10.0181 60.4975 10.0181C59.2472 10.0181 58.2587 10.449 57.5231 11.3081C56.7903 12.1678 56.4212 13.3249 56.4212 14.7765C56.4212 15.6368 56.6069 16.3324 56.9794 16.8646C57.35 17.3968 58.0347 17.6615 59.0287 17.6615C59.5193 17.6615 59.9928 17.6102 60.4462 17.5102C60.9031 17.409 61.3065 17.2815 61.6618 17.1308L61.9415 20.1421C61.4678 20.3258 60.9453 20.4917 60.3721 20.637C59.7978 20.7774 59.114 20.8502 58.3212 20.8502C57.2747 20.8502 56.3888 20.697 55.6641 20.3955C54.9391 20.0892 54.34 19.6827 53.8682 19.1677C53.3938 18.6514 53.0532 18.0486 52.8425 17.3568C52.6319 16.6655 52.5244 15.9393 52.5244 15.1815Z" fill="white"/>
<path d="M69.163 20.8502C68.269 20.8502 67.4924 20.7139 66.8337 20.4442C66.1768 20.1745 65.6327 19.7961 65.2024 19.3055C64.7715 18.8174 64.449 18.2389 64.2281 17.5724C64.0071 16.9061 63.9009 16.1683 63.9009 15.3599C63.9009 14.3459 64.0637 13.3321 64.3927 12.3212C64.7202 11.3081 65.2062 10.3978 65.8493 9.58872C66.4874 8.77842 67.2746 8.11592 68.2015 7.59937C69.1274 7.08625 70.1924 6.82812 71.3886 6.82812C72.2664 6.82812 73.0389 6.96469 73.7067 7.23437C74.3714 7.50343 74.9189 7.88499 75.3517 8.37311C75.7798 8.86373 76.1051 9.43966 76.3239 10.1072C76.5442 10.7721 76.6529 11.5118 76.6529 12.3209C76.6529 13.3318 76.4923 14.3455 76.1736 15.3596C75.8545 16.3686 75.3811 17.2811 74.7561 18.0921C74.1323 18.9011 73.3523 19.5633 72.4155 20.0777C71.4799 20.592 70.3949 20.8502 69.163 20.8502ZM71.0352 10.0184C70.4799 10.0184 69.9889 10.1797 69.5686 10.4981C69.1468 10.8203 68.7924 11.2253 68.5068 11.7137C68.218 12.2043 68.004 12.7393 67.8593 13.3209C67.7158 13.9037 67.6455 14.4546 67.6455 14.978C67.6455 15.8227 67.7818 16.4805 68.0496 16.954C68.3211 17.4249 68.8089 17.6618 69.518 17.6618C70.0752 17.6618 70.5636 17.5018 70.9864 17.1799C71.4058 16.8602 71.7605 16.4549 72.0483 15.9655C72.3352 15.4774 72.5511 14.9409 72.6958 14.3584C72.8373 13.7774 72.9095 13.2234 72.9095 12.7009C72.9095 11.8584 72.7739 11.199 72.5036 10.7262C72.2336 10.2553 71.7436 10.0184 71.0352 10.0184Z" fill="white"/>
<path d="M80.7373 20.4957H76.9883L80.1517 7.18431H83.9251L80.7373 20.4957ZM82.5573 5.56245C82.0348 5.56245 81.561 5.40683 81.1411 5.09496C80.7192 4.78496 80.5073 4.30778 80.5073 3.66466C80.5073 3.31092 80.5801 2.97904 80.7229 2.66592C80.8657 2.35342 81.0561 2.08437 81.2929 1.85562C81.5282 1.62874 81.8048 1.4475 82.1154 1.31094C82.4267 1.17656 82.7598 1.10938 83.1135 1.10938C83.6373 1.10938 84.1104 1.265 84.5316 1.57687C84.9532 1.89031 85.166 2.36749 85.166 3.00717C85.166 3.36216 85.0904 3.69529 84.9488 4.00778C84.8073 4.32028 84.617 4.58934 84.381 4.81809C84.1435 5.04527 83.8704 5.22589 83.5592 5.36121C83.2454 5.49777 82.9129 5.56245 82.5573 5.56245Z" fill="white"/>
<path d="M86.6221 7.79109C86.9065 7.70796 87.224 7.60796 87.5693 7.49921C87.9159 7.39046 88.3031 7.28921 88.7355 7.19797C89.1634 7.1039 89.6462 7.02765 90.1771 6.96859C90.708 6.90828 91.313 6.87891 91.9852 6.87891C93.9608 6.87891 95.3227 7.45421 96.0745 8.60139C96.8258 9.74856 96.9558 11.3185 96.4683 13.3085L94.7452 20.496H90.9746L92.6446 13.4598C92.7464 13.0204 92.8264 12.5957 92.8855 12.1807C92.9452 11.7695 92.9418 11.407 92.8721 11.0932C92.8055 10.7832 92.6486 10.5295 92.4052 10.3329C92.158 10.1395 91.7846 10.0423 91.278 10.0423C90.7896 10.0423 90.2927 10.0948 89.7855 10.1961L87.3303 20.4956H83.5581L86.6221 7.79109Z" fill="white"/>
</svg>