<svg width="44" height="14" viewBox="0 0 44 14" fill="none" xmlns="http://www.w3.org/2000/svg">
<g clipPath"url(#clip0_573_137)">
<path d="M18.7464 13.7981H15.2416L17.4338 0.246338H20.9367L18.7464 13.7981Z" fill="#A4A4A4"/>
<path d="M31.4491 0.576059C30.7573 0.302035 29.6613 -0.000732422 28.3065 -0.000732422C24.8457 -0.000732422 22.4082 1.84462 22.3948 4.4833C22.3661 6.43021 24.1386 7.51098 25.4666 8.16058C26.8214 8.82361 27.2832 9.25668 27.2832 9.8488C27.2698 10.7571 26.1871 11.1748 25.1791 11.1748C23.7803 11.1748 23.031 10.9583 21.8909 10.4543L21.429 10.2378L20.9385 13.2808C21.7605 13.6545 23.2744 13.9879 24.8476 14.0013C28.5249 14.0013 30.9183 12.1847 30.9471 9.37357C30.9605 7.83099 30.0253 6.64866 28.0056 5.68287C26.7792 5.062 26.03 4.64426 26.03 4.00998C26.0434 3.43319 26.6642 2.84299 28.0478 2.84299C29.1879 2.81424 30.0234 3.08827 30.6577 3.36229L30.9739 3.50601L31.4491 0.576059Z" fill="#A4A4A4"/>
<path d="M36.1056 8.99594C36.395 8.21795 37.5045 5.20368 37.5045 5.20368C37.4892 5.23242 37.7919 4.41035 37.9663 3.90638L38.2116 5.07338C38.2116 5.07338 38.8746 8.31759 39.0183 8.99594C38.4703 8.99594 36.7974 8.99594 36.1056 8.99594ZM40.4325 0.246338H37.721C36.8855 0.246338 36.2494 0.491618 35.8891 1.37118L30.6846 13.8H34.3618C34.3618 13.8 34.9674 12.1271 35.0977 11.7668C35.5001 11.7668 39.0777 11.7668 39.597 11.7668C39.6967 12.2421 40.0148 13.8 40.0148 13.8H43.259L40.4325 0.246338Z" fill="#A4A4A4"/>
<path d="M12.3134 0.246338L8.88332 9.4865L8.50774 7.61241C7.87346 5.45088 5.88247 3.09964 3.66345 1.93264L6.80611 13.7847H10.5121L16.0194 0.246338H12.3134Z" fill="#A4A4A4"/>
<path d="M5.69665 0.246338H0.0571216L-0.000366211 0.520362C4.39743 1.6452 7.31013 4.3567 8.50779 7.61432L7.28139 1.38651C7.08018 0.518446 6.45932 0.273165 5.69665 0.246338Z" fill="#A4A4A4"/>
</g>
<defs>
<clipPath id="clip0_573_137">
<rect width="43.2588" height="14" fill="white"/>
</clipPath>
</defs>
</svg>
