<svg width="27" height="26" viewBox="0 0 27 26" fill="none" xmlns="http://www.w3.org/2000/svg">
<path d="M13.3306 0C6.16118 0 0.330566 5.83276 0.330566 13C0.330566 20.1672 6.16333 26 13.3306 26C20.4978 26 26.3306 20.1672 26.3306 13C26.3306 5.83276 20.4978 0 13.3306 0ZM24.7262 13C24.7262 16.0438 23.5416 18.9056 21.3889 21.0583C19.2362 23.2111 16.3744 24.3956 13.3306 24.3956C10.2867 24.3956 7.42498 23.2111 5.27224 21.0583C3.1195 18.9056 1.93495 16.0438 1.93495 13C1.93495 9.95617 3.1195 7.09441 5.27224 4.94167C7.42498 2.78893 10.2867 1.60438 13.3306 1.60438C16.3744 1.60438 19.2362 2.78893 21.3889 4.94167C23.5395 7.09441 24.7262 9.95617 24.7262 13Z" fill="white"/>
<path d="M3.69971 10.1104V11.7169H11.576L7.65176 15.3048L7.53395 15.414L7.64105 15.5318L8.50857 16.4786L8.61782 16.5986L8.73563 16.4893L13.3303 12.2867L17.9228 16.4893L18.0428 16.5986L18.1499 16.4786L19.0174 15.5318L19.1266 15.414L19.0067 15.3048L15.0846 11.7169H22.9587V10.1104H3.69971Z" fill="white"/>
<path d="M13.4379 14.0624L13.3308 13.9639L13.2215 14.0624L7.65223 19.1562L7.53442 19.2654L7.64153 19.3832L8.50905 20.3321L8.61829 20.4499L8.7361 20.3407L13.3308 16.138L17.9233 20.3407L18.0432 20.4499L18.1503 20.3321L19.0179 19.3832L19.1271 19.2654L19.0072 19.1562L13.4379 14.0624Z" fill="white"/>
</svg>