<svg width="16" height="16" viewBox="0 0 16 16" fill="none" xmlns="http://www.w3.org/2000/svg">
  <path d="M13.6875 0.886719L1.4375 7.94141C0.808594 8.29688 0.863281 9.22656 1.51953 9.5L5.375 11.0859V13.875C5.375 14.7227 6.38672 15.0781 6.90625 14.4492L8.57422 12.4258L12.0195 13.8477C12.5391 14.0664 13.1406 13.7383 13.2227 13.1641L14.9727 1.76172C15.082 1.05078 14.3164 0.503906 13.6875 0.886719ZM6.25 13.875V11.4688L7.72656 12.0703L6.25 13.875ZM12.375 13.0547L6.71484 10.7031L12.1836 4.27734C12.3203 4.11328 12.1016 3.89453 11.9375 4.03125L4.96484 9.99219L1.875 8.70703L14.125 1.625L12.375 13.0547Z" fill="currentColor"/>
</svg>