<svg width="15" height="15" viewBox="0 0 15 15" fill="none" xmlns="http://www.w3.org/2000/svg">
  <path d="M13.9531 0.46875H13.6797C13.4883 0.46875 13.3516 0.632812 13.3516 0.796875V3.83203C12.1484 1.83594 9.96094 0.46875 7.47266 0.496094C3.72656 0.496094 0.691406 3.55859 0.71875 7.27734C0.71875 11.0234 3.75391 14.0312 7.5 14.0312C9.22266 14.0312 10.8359 13.375 12.0391 12.3086C12.1758 12.1719 12.1758 11.9531 12.0391 11.8164L11.8477 11.625C11.7383 11.5156 11.5195 11.4883 11.4102 11.625C10.3711 12.5547 9.00391 13.1016 7.5 13.1016C4.27344 13.1016 1.64844 10.5039 1.64844 7.25C1.64844 4.05078 4.24609 1.39844 7.5 1.39844C9.74219 1.39844 11.7109 2.71094 12.6953 4.57031H9.57812C9.38672 4.57031 9.25 4.73438 9.25 4.89844V5.17188C9.25 5.36328 9.38672 5.5 9.57812 5.5H13.9531C14.1172 5.5 14.2812 5.36328 14.2812 5.17188V0.796875C14.2812 0.632812 14.1172 0.46875 13.9531 0.46875Z" fill="currentColor"/>
</svg>
