<svg width="112" height="27" viewBox="0 0 112 27" fill="none" xmlns="http://www.w3.org/2000/svg">
<g clipPath"url(#clip0_93_7289)">
<path d="M97.8935 0.948084C99.891 0.948084 101.791 1.40535 103.496 2.22334C103.763 2.34354 104.032 2.48826 104.299 2.63313L103.13 3.66941L101.377 1.86264L98.3578 4.51115L96.5794 2.6094L91.026 7.54581L94.5819 11.4221L93.1936 12.6246L96.7013 16.501L95.3129 17.705L100.332 23.2189L103.301 20.5213L105.884 23.412C105.372 23.7972 104.812 24.1832 104.204 24.5194C102.353 25.5558 100.209 26.1555 97.9188 26.1555C90.8796 26.1555 85.1561 20.4991 85.1561 13.5407C85.1322 6.63049 90.8559 0.946533 97.8942 0.946533L97.8935 0.948084ZM95.555 12.7694L98.6007 10.0718L101.328 13.0826L98.2826 15.7787L95.555 12.7686V12.7694ZM97.7226 17.9708L100.745 15.2494L103.496 18.2596L100.45 20.9572L97.7234 17.9708H97.7226ZM93.389 7.64071L96.4323 4.94466L99.1615 7.95396L96.1159 10.6516L93.389 7.64071ZM98.9661 6.19701L101.23 4.17418L103.277 6.41299L101.01 8.45955L98.9646 6.19701H98.9661ZM103.009 15.4662L105.273 13.4441L107.319 15.7067L105.054 17.7303L103.008 15.4662H103.009ZM105.005 20.0173L107.271 17.9945L109.316 20.2333L107.051 22.2799L105.005 20.0173ZM105.931 9.61454L107.442 8.2673L108.805 9.76008L107.296 11.1081L105.93 9.61454H105.931ZM103.982 5.16064L105.493 3.78894L106.858 5.30618L105.347 6.65498L103.983 5.16146L103.982 5.16064ZM107.856 14.0707L109.366 12.7219L110.753 14.2147L109.219 15.5627L107.856 14.0707H107.856ZM101.061 10.7228L103.326 8.70081L105.372 10.9396L103.108 12.9625L101.061 10.7235V10.7228ZM7.47251 9.63106H7.35782L5.20051 17.8237H3.43795L0.791748 6.18515H2.62155L4.45056 14.869H4.56445L6.68695 6.18515H8.14098L10.4114 14.869H10.5269L12.193 6.18515H14.1042L11.4573 17.8237H9.69312L7.47251 9.63106ZM16.4253 12.8683H20.1648C20.0833 11.1453 19.2495 10.4555 18.3674 10.4555C17.3707 10.4555 16.6033 11.2284 16.4245 12.8683H16.4253ZM21.4717 15.9551V17.2035C20.736 17.6307 19.7566 17.9589 18.5794 17.9589C15.8344 17.9589 14.7094 16.251 14.7094 13.6578C14.7094 11.1619 15.9673 9.35659 18.4165 9.35659C20.4575 9.35659 21.7153 10.6856 21.7153 13.3611V13.9687H16.3913C16.3913 15.9385 17.1903 16.8087 18.8737 16.8087C19.7566 16.8087 20.573 16.4954 21.4709 15.9543L21.4717 15.9551ZM25.5165 16.6433C26.0386 16.8727 26.6114 16.9058 27.0196 16.9058C28.23 16.9058 29.1421 16.1504 29.1421 13.4908C29.1421 11.4062 28.3905 10.7338 27.2973 10.7338C26.6438 10.7338 26.1699 10.914 25.5173 11.2749V16.6424L25.5165 16.6433ZM25.5323 10.0615C26.0228 9.79895 26.855 9.45231 27.7379 9.45231C29.7631 9.45231 30.858 10.8644 30.858 13.4909C30.858 16.5603 29.3866 18.0554 27.0196 18.0554C26.1534 18.0554 24.814 17.7753 23.8339 17.2486V5.79435L25.5331 5.38292V10.0615H25.5323ZM38.2104 15.3538H38.2911L41.7853 6.17721H43.8105V17.8166H42.0464V9.37877H41.9L38.568 17.8166H37.5237L34.1916 9.5765H34.0437V17.8166H32.5739V6.17721H34.5516L38.2104 15.3538ZM51.0182 13.6578C51.0182 11.4427 50.1211 10.5068 49.0112 10.5068C47.9337 10.5068 47.0018 11.4419 47.0018 13.6578C47.0018 15.9068 47.8514 16.8087 49.0112 16.8087C50.1701 16.8087 51.0189 15.9069 51.0189 13.657L51.0182 13.6578ZM45.2883 13.657C45.2883 10.7838 46.8562 9.35577 49.0119 9.35577C51.1692 9.35577 52.7364 10.783 52.7364 13.6562C52.7364 16.4622 51.2507 17.9574 49.0127 17.9574C46.7739 17.9574 45.2891 16.4622 45.2891 13.6562L45.2883 13.657ZM54.0275 10.5717C54.7632 10.1287 56.3153 9.35659 58.1918 9.35659C60.1521 9.35659 60.8862 10.1271 60.8862 11.8169V17.7612H59.1885V12.1974C59.1885 10.9 58.5533 10.6706 57.7187 10.6706C57.066 10.6706 56.2314 10.9666 55.7251 11.2615V17.7619H54.0275V10.5709V10.5717ZM64.4825 12.8683H68.2212C68.1421 11.1453 67.3075 10.4555 66.4254 10.4555C65.4287 10.4555 64.6613 11.2284 64.4817 12.8683H64.4825ZM69.5273 15.9551V17.2035C68.7932 17.6307 67.813 17.9589 66.6359 17.9589C63.8947 17.9589 62.7674 16.251 62.7674 13.6578C62.7674 11.1619 64.0237 9.35659 66.4737 9.35659C68.5147 9.35659 69.7741 10.6856 69.7741 13.3611V13.9687H64.4501C64.4501 15.9385 65.2491 16.8087 66.9309 16.8087C67.813 16.8087 68.6318 16.4954 69.5273 15.9543V15.9551ZM76.5593 9.35741H78.3076L75.3505 17.561C74.5333 19.8266 73.5389 21.0085 71.6601 21.0085V19.6653C72.7708 19.6653 73.4559 18.7793 73.849 17.5626L70.7132 9.35741H72.5089L74.6006 15.3966H74.6987L76.5593 9.35659L76.5593 9.35741Z" fill="white"/>
</g>
<defs>
<clipPath id="clip0_93_7289">
<rect width="110.753" height="26" fill="white" transform="translate(0.39624 0.551025)"/>
</clipPath>
</defs>
</svg>
