<svg width="71" height="17" viewBox="0 0 71 17" fill="none" xmlns="http://www.w3.org/2000/svg">
<path d="M13.5566 2.43579C14.0174 3.16756 14.2071 3.89934 14.2071 4.84793C14.2071 7.85633 11.6323 11.7591 9.54544 14.5236H4.80247L2.87817 3.08626L7.05199 2.67972L8.05479 10.8105C9.00339 9.29278 10.1688 6.88063 10.1688 5.22737C10.1688 4.33298 10.0062 3.70962 9.76226 3.19467L13.5566 2.43579ZM18.9772 7.44979C19.7361 7.44979 21.6875 7.09746 21.6875 6.01335C21.6875 5.47129 21.308 5.20027 20.8744 5.20027C20.0884 5.20027 19.0856 6.14886 18.9772 7.44979ZM18.8959 9.61801C18.8959 10.9731 19.6276 11.5152 20.6304 11.5152C21.7146 11.5152 22.7174 11.2442 24.0725 10.5666L23.5575 13.9815C22.6089 14.4423 21.1454 14.7404 19.709 14.7404C16.1043 14.7404 14.8034 12.5722 14.8034 9.80773C14.8034 6.25727 16.9174 2.49 21.2538 2.49C23.6388 2.49 24.994 3.81803 24.994 5.68812C24.994 8.66941 21.1183 9.61801 18.8959 9.64511V9.61801ZM37.0276 5.09186C37.0276 5.5526 36.9463 6.17596 36.8921 6.60961L35.6453 14.5236H31.5799L32.7183 7.26007L32.7996 6.44699C32.7996 5.90494 32.4743 5.79653 32.0949 5.79653C31.5528 5.79653 31.0108 6.04045 30.6856 6.20307L29.3846 14.5236H25.3192L27.1622 2.67972H30.6856L30.7398 3.62831C31.5799 3.08625 32.6912 2.46289 34.236 2.46289C36.2958 2.46289 37.0276 3.547 37.0276 5.11896V5.09186ZM49.0883 3.76382C50.2537 2.95074 51.3378 2.46289 52.8827 2.46289C54.9425 2.46289 55.6742 3.547 55.6742 5.11896C55.6635 5.61837 55.6182 6.11644 55.5387 6.60961L54.292 14.5236H50.2266L51.392 7.12456L51.4462 6.5283C51.4462 5.93204 51.121 5.79653 50.7145 5.79653C50.2266 5.79653 49.7117 6.01335 49.3593 6.20307L48.0584 14.5236H43.993L45.1584 7.09746L45.2126 6.5283C45.2126 5.93204 44.8874 5.79653 44.4808 5.79653C43.9388 5.79653 43.4238 6.04045 43.0715 6.20307L41.7977 14.4965H37.7052L39.5752 2.67972H43.0444L43.1799 3.65541C43.993 3.05915 45.0771 2.46289 46.5406 2.46289C47.8416 2.46289 48.6546 3.00495 49.0883 3.76382ZM63.7509 7.20587C63.7509 6.25727 63.5069 5.5797 62.8023 5.5797C61.1761 5.5797 60.8509 8.42549 60.8509 9.86193C60.8509 10.9731 61.149 11.6507 61.8808 11.6507C63.3985 11.6507 63.7509 8.66941 63.7509 7.20587ZM56.7042 9.69932C56.7042 5.95914 58.7098 2.46289 63.2359 2.46289C66.678 2.46289 67.9247 4.4956 67.9247 7.28718C67.9247 10.9731 65.9733 14.7946 61.3116 14.7946C57.8696 14.7946 56.7042 12.5451 56.7042 9.69932Z" fill="white"/>
</svg>
